<?xml version="1.0" encoding="UTF-8"?>
<svg xmlns="http://www.w3.org/2000/svg" viewBox="0 0 698.03 554.09">
  <defs>
    <style>.cls-1{fill:#272e66;opacity:.58;}.cls-1,.cls-2,.cls-3{mix-blend-mode:screen;}.cls-2{fill:#d4732e;opacity:.56;}.cls-4{fill:#f7bf8b;}.cls-5{fill:#f7eee6;}.cls-6{fill:#f2e7dc;}.cls-7,.cls-8{fill:#f0e4da;}.cls-9{fill:#e8a572;}.cls-10{fill:#e3d9ce;}.cls-11,.cls-12,.cls-13{fill:#e87a43;}.cls-14{fill:#e3d5c5;}.cls-15{fill:#fff;}.cls-16{fill:#f0a278;}.cls-17{fill:#c2ad93;}.cls-18{fill:#cf8d59;}.cls-19,.cls-20,.cls-21{fill:#cdbda7;}.cls-22{fill:#b3a492;}.cls-23{fill:#a6947e;}.cls-24{fill:#bfb09c;}.cls-25{fill:#d44d2e;}.cls-26{fill:#dbcab3;}.cls-27{fill:#db9c6c;}.cls-28{fill:#e0d3c5;}.cls-29{fill:#c7b7a3;}.cls-30{fill:#161b3b;}.cls-31{fill:#161936;}.cls-32{fill:#1d2146;}.cls-33{fill:#1c1f41;}.cls-34{fill:#1c2149;}.cls-35{fill:#574c40;}.cls-36{fill:#7a6b5a;}.cls-37{fill:#4f1d12;}.cls-20{opacity:.21;}.cls-20,.cls-12,.cls-21,.cls-13{mix-blend-mode:multiply;}.cls-12,.cls-21{opacity:.38;}.cls-13{opacity:.24;}.cls-3{opacity:.59;}.cls-38{isolation:isolate;}.cls-8{opacity:.29;}</style>
  </defs>
  <g class="cls-38">
    <g id="Ebene_2">
      <g id="Illustration_1_translations">
        <g>
          <path class="cls-8" d="m575.6,290.29c-3.65,8.12-8.04,15.93-13.2,23.21H38.75c-3.83-7.17-7.59-14.95-11.19-23.21C8.4,246.05-5.71,187.8,2.28,133.73,16.35,38.46,85.73-40.14,184.73,30.53c78.94,55.63,151.25,42.49,235.85,52.11,96.74,10.99,112.42,27.59,148.6,69.08,23.9,27.4,28.79,88.92,6.42,138.57Z"></path>
          <g>
            <path class="cls-19" d="m339.71,199.29l3.44-11.37-7.95-7.45,2.74-.73,7.08,6.98,6.83-1.83,2.63-9.59,2.74-.73-3.17,10.48,8.67,8.08-2.59.7-7.3-6.92-7.67,2.06-2.89,9.66-2.55.69Zm7.61-22.08l5.02,18.69-2.26.61-5.02-18.69,2.26-.61Z"></path>
            <path class="cls-34" d="m150.98,52.43l.26.22c.09.07.17.16.24.26.07.09.11.16.1.21,0,.05-.06.11-.14.19-.31.23-.63.29-.96.18-.38-.16-.75-.34-1.12-.54-.36-.2-.69-.45-.98-.75-.13-.15-.29-.2-.48-.15-.25.04-.5.08-.75.1-.25.02-.52.02-.78-.01-.04-.02-.09-.02-.13-.01-.04,0-.09,0-.13-.03-.63-.22-1.16-.53-1.59-.92-.43-.39-.73-.93-.89-1.6-.07-.34-.06-.64.03-.92.09-.28.28-.52.56-.72.21-.16.26-.35.18-.57-.12-.34-.19-.68-.23-1.04-.04-.36-.07-.71-.1-1.06,0-.12,0-.23-.02-.35s-.02-.23-.02-.35c-.03-.7.04-1.38.2-2.03.16-.65.39-1.29.68-1.92.25-.51.52-1,.82-1.47.3-.47.66-.89,1.08-1.27.34-.32.7-.6,1.09-.83.4-.23.83-.39,1.29-.48.47-.07.91-.04,1.34.09,1.01.29,1.8.78,2.38,1.46.58.68.96,1.53,1.15,2.55.12.57.2,1.14.24,1.72.04.58.04,1.16,0,1.76-.07,1.01-.27,1.96-.58,2.87s-.8,1.75-1.46,2.54c-.57.67-1.23,1.23-1.99,1.66-.04.03-.09.05-.13.07-.04.01-.09.05-.13.11.28.39.6.74.98,1.05Zm-4.15-2.52c-.12-.23-.24-.47-.36-.7-.04-.07-.09-.15-.15-.23-.06-.08-.12-.16-.17-.23-.04-.07-.12-.09-.24-.04-.21.07-.38.23-.53.48-.15.25-.2.47-.15.68.03.16.07.31.13.46.06.15.12.28.2.42.07.13.2.2.37.2.21-.03.42-.06.63-.1.22-.04.44-.1.66-.19-.13-.26-.26-.51-.38-.74Zm-1.35-3.3c.01.18.03.37.04.56.01.16.04.26.07.31.03.04.11.08.24.11.58.13,1.1.37,1.54.7.45.34.86.73,1.24,1.18.15.16.24.24.28.25.04,0,.15-.05.33-.19.01-.01.03-.02.04-.03.01,0,.03-.02.04-.03.63-.51,1.15-1.09,1.58-1.74s.77-1.35,1.03-2.11c.55-1.63.77-3.3.63-4.99-.03-.38-.08-.74-.16-1.08s-.21-.68-.38-1.02c-.1-.18-.23-.3-.37-.37-.41-.25-.81-.36-1.21-.34-.39.02-.79.14-1.18.36-.37.19-.69.42-.98.68-.28.26-.55.55-.8.85-.39.48-.73,1-1,1.54-.27.55-.48,1.12-.65,1.72-.16.51-.25,1.03-.27,1.54-.02.52-.04,1.03-.06,1.54-.03.19-.04.38-.02.56Z"></path>
            <path class="cls-19" d="m172.39,86.73c-.1.4-.22.8-.37,1.19-.33.89-.72,1.72-1.18,2.51-.46.79-.98,1.56-1.55,2.32-.05.08-.1.16-.15.22s-.11.12-.2.17c-.13.1-.22.22-.26.36-.04.14-.07.28-.09.43-.03.26-.05.52-.05.78v.78s0,.06.01.07.01.04.01.07c.03.28.1.45.2.51.1.06.28.04.54-.06.38-.13.71-.31.99-.53.28-.22.53-.49.76-.8.16-.23.32-.46.47-.7.15-.24.27-.5.37-.78.03-.08.07-.15.1-.2s.11-.06.22-.02c.18.08.24.21.17.39-.05.12-.09.23-.12.34-.03.12-.08.24-.15.37-.13.3-.27.59-.43.87-.16.29-.32.57-.5.85-.28.48-.65.8-1.11.96s-.91.21-1.35.12c-.28-.05-.52-.16-.71-.32s-.39-.34-.59-.52c-.31-.28-.52-.6-.62-.95-.1-.35-.16-.72-.2-1.1-.02-.38,0-.74.07-1.08s.14-.69.22-1.03c.23-.87.48-1.72.74-2.55.26-.83.57-1.65.93-2.48.18-.41.38-.81.59-1.21.21-.39.46-.76.74-1.11.08-.1.16-.19.25-.27l.25-.25c.28-.3.56-.44.84-.43.28,0,.59.18.94.53.31.33.45.76.42,1.28-.03.43-.1.84-.2,1.24Zm-.84-2.03s-.1.11-.15.17c-.21.26-.39.54-.54.83-.15.29-.29.59-.42.9-.33.74-.59,1.48-.78,2.23-.19.75-.37,1.52-.55,2.3-.03.13-.07.27-.11.42s-.06.3-.06.44l.1-.05s.07-.09.11-.14c.04-.04.08-.09.11-.14.56-.77,1.03-1.57,1.4-2.4.38-.83.69-1.7.94-2.6.1-.33.16-.67.2-1.02.03-.35.02-.72-.02-1.1-.1.05-.17.1-.22.15Z"></path>
            <path class="cls-11" d="m164.79,62.07c-.07.12-.15.22-.23.28-.08.06-.19.09-.32.09-.14,0-.3-.07-.49-.21-.18-.14-.42-.29-.7-.46-.28-.17-.62-.32-1.02-.46-.4-.14-.88-.21-1.45-.21-.53,0-1.01.07-1.42.22-.41.14-.75.34-1.03.59s-.48.54-.62.87c-.14.33-.21.69-.21,1.08,0,.49.12.9.36,1.23.24.32.56.6.96.83.4.23.85.43,1.36.6.51.17,1.02.34,1.55.52.53.18,1.05.38,1.55.61.5.23.96.51,1.35.86.4.34.72.77.96,1.27.24.5.36,1.12.36,1.85,0,.77-.13,1.5-.39,2.17s-.65,1.27-1.15,1.77c-.51.5-1.13.9-1.86,1.18-.73.29-1.57.43-2.51.43-1.14,0-2.18-.21-3.12-.62-.94-.41-1.74-.98-2.41-1.68l.69-1.13c.07-.09.15-.17.24-.23.1-.06.2-.09.32-.09.17,0,.37.09.59.28.22.19.5.39.83.61.33.22.74.43,1.21.61.47.19,1.05.28,1.73.28.57,0,1.07-.08,1.51-.23.44-.16.82-.38,1.13-.66.31-.28.54-.62.71-1.02.16-.39.25-.83.25-1.32,0-.53-.12-.97-.36-1.31-.24-.34-.56-.63-.95-.86-.39-.23-.84-.43-1.35-.58-.51-.16-1.02-.32-1.55-.49-.53-.17-1.05-.36-1.55-.59s-.95-.51-1.35-.86-.71-.79-.96-1.32c-.24-.53-.36-1.18-.36-1.96,0-.62.12-1.23.36-1.81.24-.58.59-1.1,1.05-1.55.46-.45,1.03-.81,1.71-1.08s1.46-.41,2.33-.41c.99,0,1.88.16,2.7.47s1.52.76,2.13,1.35l-.58,1.13Z"></path>
            <path class="cls-25" d="m141.82,54.8l.36,1.6c-1.38.48-2.07.97-2.05,1.47l.04.11c.68.41,1.15.99,1.41,1.73.41,1.16.36,2.25-.14,3.27-.5,1.02-1.54,1.81-3.13,2.36-.71.25-1.29.37-1.76.37-.27.39-.34.77-.21,1.16.17.48.49.72.98.72.62.02,1.81-.28,3.55-.89,2.82-.99,4.56-.55,5.22,1.33.47,1.34.3,2.64-.49,3.9-.79,1.26-2.06,2.2-3.81,2.81s-3.18.75-4.17.36c-.99-.38-1.64-1.03-1.96-1.95-.29-.83-.34-1.57-.14-2.2.2-.64.56-1.11,1.07-1.43l-.04-.1c-.69-.08-1.17-.52-1.45-1.32-.25-.73-.11-1.5.44-2.31l-.03-.09c-.46-.05-.95-.25-1.47-.59s-.9-.85-1.14-1.53c-.41-1.18-.36-2.28.16-3.3.52-1.02,1.52-1.78,3-2.3,1.21-.42,2.24-.54,3.08-.34l.12-.04c-.2-1.34.2-2.18,1.21-2.54.55-.19.99-.28,1.33-.28Zm2.86,14.57c-.24-.7-.67-1.1-1.28-1.21-.61-.11-1.62.08-3.02.58-.95.33-1.84.59-2.66.78-.75.76-.98,1.56-.68,2.4.63,1.81,2.14,2.3,4.52,1.47,1.24-.43,2.14-1.02,2.69-1.76.55-.74.7-1.49.43-2.26Zm-4.74-8.57c-.29-.82-.76-1.35-1.43-1.61-.67-.25-1.4-.24-2.19.04-.75.26-1.31.69-1.66,1.29-.36.6-.4,1.28-.13,2.05s.76,1.34,1.42,1.58c.67.24,1.4.22,2.21-.06.74-.26,1.29-.68,1.65-1.27.36-.59.4-1.26.14-2.02Z"></path>
            <path class="cls-11" d="m208.05,107.02l-1.97.55,1.37-17.11,1.94-.54,10.03,13.93-1.97.55-8.29-11.77-.12.03-.99,14.36Zm-.97-6.27l7.94-2.22.47,1.67-7.94,2.22-.47-1.67Z"></path>
            <path class="cls-19" d="m199.53,152.09v-8.46h2.2v14.32h-2.2v-2.42h-.15c-.34.73-.86,1.34-1.57,1.85-.71.51-1.6.76-2.68.76-.89,0-1.69-.2-2.39-.59-.7-.39-1.24-.99-1.64-1.79-.4-.8-.6-1.81-.6-3.02v-9.1h2.2v8.95c0,1.04.29,1.88.88,2.5s1.34.93,2.25.93c.54,0,1.1-.14,1.67-.42s1.05-.71,1.44-1.29.58-1.31.58-2.21Zm-6.08-10.85c-.39,0-.74-.15-1.04-.45-.3-.3-.45-.65-.45-1.04,0-.43.15-.78.45-1.07s.65-.42,1.04-.42c.43,0,.79.14,1.07.42s.43.64.43,1.07c0,.39-.14.74-.43,1.04-.28.3-.64.45-1.07.45Zm5.37,0c-.39,0-.74-.15-1.04-.45-.3-.3-.45-.65-.45-1.04,0-.43.15-.78.45-1.07s.65-.42,1.04-.42c.43,0,.78.14,1.07.42.28.28.42.64.42,1.07,0,.39-.14.74-.42,1.04-.28.3-.64.45-1.07.45Z"></path>
            <path class="cls-34" d="m202.05,121.78c.53,1.36.63,2.61.29,3.74s-1.1,2.1-2.3,2.9c-.83.55-1.66.9-2.5,1.04-.84.14-1.65.11-2.43-.09-.78-.2-1.51-.55-2.2-1.06-.68-.51-1.27-1.14-1.77-1.89s-.88-1.58-1.09-2.43c-.21-.85-.26-1.68-.14-2.49.12-.81.39-1.58.83-2.3.44-.72,1.05-1.34,1.83-1.87.72-.48,1.45-.78,2.19-.91.74-.13,1.46-.1,2.17.09.7.19,1.37.52,2.01,1.01.64.49,1.21,1.1,1.73,1.84l-7.4,4.93c.08.15.14.24.17.28l.05.08c.64.97,1.24,1.7,1.78,2.21.55.51,1.06.85,1.55,1.02.48.17.94.19,1.38.08.44-.11.87-.32,1.31-.6.4-.27.74-.57,1.03-.92.28-.34.49-.73.62-1.15.13-.42.18-.89.15-1.41-.03-.52-.16-1.08-.37-1.69.17-.09.36-.17.55-.24.19-.07.38-.12.56-.16Zm-4.5-1.73c-.48-.66-.91-1.17-1.31-1.51-.4-.34-.78-.57-1.13-.67s-.69-.11-1.02-.02c-.32.09-.64.24-.96.46-.34.22-.62.48-.84.77-.22.29-.37.64-.44,1.03s-.04.86.09,1.37c.13.52.38,1.12.75,1.8l4.86-3.24Zm-6.59-4.15c-.16.03-.3.04-.45.03-.14-.01-.29-.04-.45-.07l-.38-7.08c.78-.16,1.65-.15,2.61.01l-1.34,7.11Z"></path>
            <path class="cls-25" d="m177.87,118.99h-7.49v-1.22h2.29v-10.58h-2.29v-1.22h5.04v2.37h.06c.18-.4.41-.76.68-1.09.27-.33.57-.62.89-.86s.67-.43,1.04-.57c.37-.13.74-.2,1.12-.2.61,0,1.12.18,1.51.53.4.36.6.85.6,1.48,0,.56-.15,1-.46,1.31-.31.31-.7.47-1.19.47s-.9-.15-1.17-.44c-.27-.3-.41-.67-.41-1.12,0-.23.05-.49.14-.76-.4.14-.77.37-1.11.68-.34.31-.64.7-.89,1.17-.25.47-.45,1.01-.6,1.63-.14.62-.21,1.3-.21,2.06v5.15h2.45v1.22Z"></path>
            <path class="cls-11" d="m131.17,32.28c.06.26.11.52.14.76,3.41-.91,5.48.52,6.47,2.63,1.32,2.84-.31,5.69-4.55,8.27-.19-.22-.69-.64-.98-.85,3.54-2.08,5.32-4.47,4.24-6.78l-.06-.13c-1.05-2.03-2.92-2.4-4.99-1.84.17,2.38-.26,4.86-1.11,6.91.3.32.61.56.91.75l-.75,1.15c-.28-.18-.56-.41-.85-.69-.94,1.72-1.95,2.54-2.76,2.91-1.43.67-2.66-.05-3.27-1.37-1.15-2.47-.02-5.38,2.09-7.63-.47-.91-.94-1.93-1.42-3-3.02,1.41-3.35,1.56-3.95,1.79l-.58-1.16c.94-.37,2.49-1.09,4.03-1.81-.37-.83-.8-1.85-1.15-2.71l1.85-.71c.07.19-.05.41-.3.57.25.69.6,1.53.85,2.21,1.92-.96,5.23-2.78,6.82-4.09l.73,1.14c-1.68,1.35-5.05,3.13-7.06,4.13.4.95.79,1.85,1.2,2.68,1.07-.98,2.19-1.52,2.49-1.66.27-.12.5-.23.74-.32-.06-.32-.13-.61-.21-.92l1.42-.27Zm-2.39,9.23c-.8-.98-1.62-2.31-2.47-3.94-1.55,1.77-2.38,3.96-1.57,5.69.49,1.06,1.25,1.14,1.87.8.83-.41,1.57-1.34,2.16-2.55Zm1.33-6.73c-.29.11-1.71.73-2.82,1.84.71,1.43,1.41,2.61,2.13,3.49.57-1.59.86-3.49.7-5.33Z"></path>
            <path class="cls-34" d="m235.74,148.72l-5.72,2.08.69,1.89c1.9,5.23,2.22,11.12-3.75,16.95-.51-.31-1.29-.65-1.92-.85,5.86-5.54,5.37-10.88,3.74-15.36l-.7-1.92-8.84,3.21,2.48,6.81-1.94.71-2.48-6.81-5.36,1.95-.68-1.86,5.36-1.95-2.16-5.94,2.69-.79c.07.28-.08.62-.47.82l1.89,5.2,8.84-3.21-2.29-6.29,2.69-.79c.06.26-.08.55-.49.77l2.04,5.61,5.72-2.08.68,1.86Z"></path>
            <path class="cls-25" d="m328.6,128.83l-6.16,1.2.59,3.02,5.19-1.02,2.39,12.2-1.31.26-.22-1.14-12.87,2.52.24,1.23-1.25.24-2.41-12.29,4.62-.9-.59-3.02-5.69,1.11-.24-1.25,17.47-3.42.24,1.25Zm.25,13.32l-1.69-8.64-3.94.77.73,3.75c.08.42.17.49.68.39l1.65-.32c.44-.09.48-.29.27-1.69.29.14.82.22,1.21.24.2,1.86-.04,2.36-1.1,2.57l-1.96.38c-1.37.27-1.74-.02-1.99-1.31l-.74-3.77-3.04.59.17.85c.36,1.85.21,4.33-2.05,6.45-.22-.2-.79-.56-1.11-.66,2.14-1.94,2.23-4.01,1.92-5.59l-.16-.81-3.41.67,1.69,8.64,12.87-2.52Zm-7.12-8.83l-.59-3.02-3.04.59.59,3.02,3.04-.59Z"></path>
            <g>
              <path class="cls-34" d="m258.27,186.66c1.7,2.92,3.86,5.18,6.59,6.68,1.89-2.41,3.04-5.28,3.38-8.86l2.19.18c-.04.18-.21.31-.5.35-.48,3.63-1.66,6.61-3.56,9.1,2.84,1.21,6.21,1.77,10.16,1.59-.26.42-.57,1.23-.69,1.72-4.16.1-7.65-.56-10.61-1.97-2.26,2.41-5.29,4.33-9.12,6.01-.24-.35-.79-.95-1.15-1.28,3.67-1.55,6.6-3.33,8.77-5.55-2.76-1.67-5-4.09-6.88-7.27l1.42-.7Zm-.28-.88l-.53-2.61-5.39,1.09-.31-1.54,5.39-1.09-.65-3.21,2.09-.3c.01.17-.11.32-.41.43l.55,2.76,6.89-1.39-.65-3.21,2.07-.29c.01.19-.09.31-.38.42l.55,2.76,5.49-1.1.31,1.54-5.49,1.1.53,2.61-1.59.32-.53-2.61-6.89,1.39.53,2.61-1.59.32Z"></path>
              <path class="cls-34" d="m296.49,183.76c.33-.07.38-.08.73-.17l.9-.06c.03.14.04.34.03.54.93,6.46.67,6.54-1.99,7.07-.5.1-1.09.22-1.72.3-.12-.45-.41-1.05-.75-1.41,1.14-.13,2.16-.34,2.61-.43.93-.19.84-1.21.42-4.31l-4.97,1,1.54,7.67-1.57.32-1.54-7.67-4.28.86c-.03,3.29-1.28,6.29-5.36,9.11-.27-.34-.85-.89-1.21-1.12,3.54-2.42,4.77-4.94,4.93-7.67l-4.21.85-.06.95-1.62.05c.2-1.97.32-5.16.32-7.51l1.43-.12,3.3-.66-.68-3.4-6.03,1.21-.31-1.52,6.03-1.21-.63-3.11,2.05-.26c.01.17-.09.31-.41.4l.54,2.66,3.92-.79-.63-3.11,2.07-.29c0,.17-.09.31-.41.43l.54,2.66,5.44-1.09,1.29,6.41-5.44,1.09.67,3.33,5.04-1.01Zm-16.18-.2c-.02,1.12-.07,2.34-.14,3.49l4.09-.82c-.1-1.36-.32-2.43-.5-3.36l-3.44.69Zm4.99-1c.22,1.12.44,2.21.53,3.36l4.06-.82-.67-3.33-3.92.79Zm-.98-4.89l.68,3.4,3.92-.79-.68-3.4-3.92.79Zm9.34-1.88l-3.85.77.68,3.4,3.85-.77-.68-3.4Z"></path>
            </g>
            <path class="cls-34" d="m192.18,84.27c.43.76.7,1.49.97,2.3.2.47.3,1.36,1.25,1.36.27,0,.67-.11,1.02-.34.4-.24.7-.61.85-1.17l.38-1.49.91-.53.06.08c-.12.56-.15,1.1-.15,1.52,0,1.25.91,1.72,1.64,1.72.43,0,.81-.24.81-.7,0-.59-.21-1.6-.49-2.5.43-.5.85-1.01,1.34-1.42l.08.05c.21,1.07.34,2.12.34,2.82s-.26,1.45-.47,1.95c-.44.97-1.22,1.75-2.16,1.75-.72,0-1.51-.43-2.06-1.2h-.03c-.52.75-1.31,1.43-2.59,1.43h-.4c-.06.99-.24,1.69-.52,2.31-.76,1.75-3.02,2.98-5.13,2.98-2.95,0-4.43-2.01-4.43-4.67,0-1.64.46-3.18,1.16-4.26l.58.27c-.44.99-.73,1.93-.73,2.85,0,2.5,1.72,3.69,3.72,3.69,1.84,0,4.13-1.39,4.54-2.98-.15-1.75-.72-2.57-1.57-4.17.26-.53.59-1.07,1.01-1.63h.08Zm3.09-2.19c-.62-.59-1.17-1.08-1.78-1.58.4-.55.82-1.05,1.2-1.45.62.49,1.14.99,1.74,1.63-.43.61-.73,1.01-1.16,1.4Zm.82-3.24c-.62-.59-1.17-1.08-1.78-1.58.4-.55.82-1.05,1.2-1.45.62.49,1.14.99,1.74,1.63-.43.61-.73,1.01-1.16,1.4Zm2.12,3.05c-.62-.59-1.17-1.08-1.78-1.58.4-.55.82-1.05,1.2-1.45.62.49,1.14.99,1.74,1.63-.43.61-.73,1.01-1.16,1.4Z"></path>
            <path class="cls-34" d="m244.61,96.84c-.77-1.3-1.46-1.81-1.92-1.66-.73.23-1.6,1.04-2.25,2.02-.69,1.03-1.13,2.06-.93,2.65.47,1.47,4.71-.09,6.18.48.56.26,1.03.69,1.32,1.62.28.88.15,2.52-.37,3.5-1.13,2.04-3.27,4.08-5.5,4.8-3.85,1.24-6.56-.76-7.67-4.23-.49-1.54-.57-2.97-.44-4.37h.71c0,1.23.15,2.22.42,3.07,1,3.13,3.68,4.13,6.41,3.25,1.03-.33,2.67-1.3,4.02-2.81.86-.97,1.6-2.07,1.52-2.31-.16-.5-1.49-.49-2.93-.25-1.52.25-2.77.31-3.35-.04-.47-.27-.88-.65-1.09-1.29-.54-1.67-.28-3.3.47-4.84.77-1.56,2.21-3.3,3.35-3.67.53-.17.99-.03,1.49.49.45.48.75.98.9,1.43.13.4,0,1.38-.09,2.05l-.24.11Zm-2.6,18.66c-.89-.43-1.65-.76-2.49-1.1.24-.73.53-1.43.8-1.99.85.31,1.59.68,2.45,1.16-.25.81-.44,1.35-.77,1.93Zm3.12-1.24c-.89-.43-1.65-.76-2.49-1.1.24-.73.53-1.43.8-1.99.85.31,1.59.68,2.45,1.16-.25.81-.44,1.35-.77,1.93Z"></path>
            <path class="cls-11" d="m256.2,150.83s-.02.17-.09.41c-.07.24-.16.53-.28.86s-.26.7-.43,1.08c-.17.39-.34.75-.52,1.08l-.47.85.54,1.45c.2.42.38.88.53,1.4s.25.92.3,1.22c.11.52.23,1.37.36,2.55.13,1.18.18,2.39.17,3.65-.01,1.26-.16,2.39-.46,3.42-.3,1.02-.83,1.64-1.6,1.87-.3.09-.61.08-.96-.02s-.64-.27-.87-.52c-.48-.54-.97-1.72-1.49-3.56-.52-1.84-1.13-4.64-1.84-8.41-.16-.83-.3-1.54-.42-2.14-.12-.6-.18-.92-.19-.96s-.06.09-.16.37c-.09.29-.19.66-.29,1.13-.22.74-.42,1.38-.6,1.91-.18.53-.32.83-.42.9-.33.1-.57,0-.73-.26-.05-.18.06-.69.33-1.53.11-.31.23-.68.36-1.12.13-.44.26-.88.39-1.34.12-.45.25-.89.36-1.3s.2-.75.24-1c.04-.13.04-.47,0-1.01-.04-.54-.11-1.12-.21-1.73-.3-2.38-.47-4.17-.5-5.37-.03-1.2.08-2.12.33-2.75.27-.83.73-1.17,1.38-1,.22.06.35.13.42.21.06.08.15.31.25.67.19.5.3,1.18.33,2.02.03.85,0,1.84-.11,2.99-.04.41-.06.74-.06,1,0,.26,0,.53.03.83.02.29.06.62.11.98.05.36.11.83.2,1.4.12.68.24,1.31.35,1.9.11.59.18.93.22,1.04l.13.44.53-.22c.18-.05.38-.09.59-.11.21-.02.42-.02.62,0l.61.06.88-1.27c.9-1.42,1.51-2.17,1.84-2.27.15-.04.25.03.3.21Zm-1.93,17.03c.16-.53.27-1.25.31-2.18.05-.93.04-1.9-.02-2.92s-.17-1.99-.32-2.92-.35-1.66-.58-2.19c-.19-.38-.32-.59-.39-.63-.07-.04-.17.06-.3.3-.1.19-.37.49-.81.89l-.58.65.29,2c.19,1.06.39,2.07.59,3.05.21.97.4,1.82.57,2.55.17.73.34,1.28.49,1.68.15.39.29.57.4.54s.23-.31.36-.82Z"></path>
            <path class="cls-25" d="m223.53,124.9c-.09,3.31,1.82,5.07,4.44,5.07,1.93,0,3.03-.43,3.8-.81l.46,1.79c-1.12.61-2.74.98-4.58.98-2.36,0-4.5-1.12-5.3-3.08h-.06c-.89,1.93-2.8,3.08-5.19,3.08-2.91,0-4.35-1.96-4.35-3.98,0-3.23,3-5.1,8.42-5.04v-.58c0-.69-.43-3.11-3.26-3.11-1.32,0-2.74.49-3.57,1.07l-.61-1.67c1.24-.78,2.97-1.27,4.35-1.27,2.51,0,3.92,1.18,4.5,2.97h.06c.95-1.84,2.68-2.97,4.87-2.97,4.26,0,5.45,4.12,5.45,6.43,0,.43-.03.86-.09,1.12h-9.34Zm-2.33-.29c-2.68-.06-5.94.4-5.94,3.14,0,1.47,1.1,2.31,2.42,2.31,1.82,0,2.97-1.12,3.37-2.39.12-.32.14-.66.14-1.01v-2.05Zm9.31-1.53c.09-1.41-.69-3.92-3.26-3.92s-3.66,2.33-3.75,3.92h7Z"></path>
            <path class="cls-33" d="m281.5,152.38c.82,3.54-.9,5.89-5.16,7.05l.18,1.57c2.63.02,4.16.95,4.59,2.79.66,2.82-.54,4.59-3.59,5.3l-.68-1.69c.6-.14,1.04-.46,1.32-.95s.36-1.02.23-1.58c-.33-1.44-1.51-2.11-3.53-2.03l-.08-3.04c-1.78.36-3.49.54-5.12.55l-.06-2.94c1.8.25,3.67.15,5.6-.3,2.77-.65,3.97-1.76,3.61-3.33-.18-.76-.63-1.3-1.35-1.61s-1.86-.58-3.41-.8c-1.97-.29-3.44-.67-4.41-1.15-1.42-.7-2.3-1.74-2.62-3.13-.34-1.45-.08-2.82.77-4.11.85-1.29,2.4-2.2,4.64-2.72s3.99-.73,5.39-.67l.05,2.88c-1.5-.23-3.15-.13-4.96.29-2.44.57-3.5,1.56-3.17,2.97.17.71.57,1.22,1.22,1.54.65.31,1.84.59,3.58.85,1.87.27,3.3.64,4.28,1.1,1.47.72,2.36,1.78,2.69,3.17Z"></path>
            <path class="cls-34" d="m153.35,94.65c-.64.17-1.21.21-1.73.12-.52-.09-.96-.31-1.32-.66-.36-.35-.62-.81-.78-1.39s-.16-1.14,0-1.62c.16-.47.47-.89.94-1.23s1.06-.62,1.79-.81l2.31-.62.31,1.14-2.37.64c-.61.17-1.05.44-1.3.83-.25.39-.31.81-.18,1.28s.39.8.8,1c.41.2.92.21,1.53.05.36-.1.69-.26.98-.48.29-.22.5-.52.64-.89s.14-.84,0-1.39l.58.49c.11.62.1,1.16-.03,1.64-.13.47-.37.87-.73,1.2-.36.32-.84.57-1.43.73Zm2.72-.97l-.68-2.54-.25.07-.79-2.94c-.16-.58-.43-.98-.81-1.2-.38-.21-.87-.24-1.45-.09-.33.09-.67.19-1.01.29-.35.1-.68.21-.99.3-.32.1-.59.19-.81.27l-.36-1.34c.23-.08.47-.17.72-.25.26-.09.52-.17.8-.25.27-.08.54-.15.79-.22.87-.23,1.61-.32,2.21-.26.61.06,1.11.29,1.5.68s.69.99.91,1.79l1.45,5.38-1.21.32Zm1.48,3.73c-.55.15-1.04.12-1.45-.08-.42-.2-.7-.58-.85-1.13-.13-.49-.1-.95.1-1.4.2-.45.5-.93.9-1.46l.36-.49.66.5-.35.49c-.3.41-.5.77-.6,1.07s-.12.58-.04.85.19.43.37.52c.18.09.4.11.67.03.31-.08.58-.21.82-.37l.29,1.08c-.11.07-.23.15-.38.21s-.32.13-.5.18Z"></path>
            <path class="cls-34" d="m301.61,152.02c-.54.08-.97,0-1.29-.26-.32-.26-.51-.6-.57-1.04s0-.85.24-1.18c.23-.33.61-.54,1.15-.62s.99,0,1.3.25c.31.25.5.6.56,1.05s0,.82-.23,1.16c-.22.34-.6.55-1.16.63Zm.8,4.87l-.3-1.99,4.67-.71.3,1.99-4.67.71Zm3.98,11.68l-2.14-14,2.52-.38,2.14,14-2.52.38Zm.46-17.34c-.54.08-.97,0-1.29-.26-.32-.26-.51-.6-.57-1.04s0-.85.24-1.18c.23-.33.61-.54,1.15-.62s.99,0,1.3.24c.31.25.49.6.56,1.05s0,.82-.22,1.16c-.22.34-.61.55-1.16.63Z"></path>
            <path class="cls-11" d="m131.52,13.23c.55-.71.94-1.13,1.18-1.26.23-.13.28.05.14.55-.05.17-.16.4-.31.69s-.33.6-.53.93c-.21.32-.41.64-.6.94-.19.31-.36.54-.52.69-.52.58-1.09.94-1.7,1.07-.32.07-.69.08-1.11.02-.29-.06-.44-.04-.45.05.04.18.08.44.13.78.05.34.09.7.12,1.06.04.36.06.7.07,1.03,0,.32,0,.55-.03.68-.05.17-.16.28-.32.33-.16.05-.31.03-.45-.06-.19-.14-.38-.49-.58-1.05-.2-.56-.4-1.27-.6-2.16-.2-.88-.38-1.89-.56-3.04-.18-1.15-.32-2.39-.43-3.72-.35-3.37-.41-5.9-.19-7.59.23-1.68.75-2.71,1.56-3.08.43-.16.83-.12,1.2.1.37.23.63.6.78,1.12.21.66.27,1.71.19,3.15-.08,1.44-.28,3.05-.59,4.85l-.29,1.59.35-.08c.79-.18,1.19.28,1.18,1.36-.03.28-.13.69-.31,1.2-.18.52-.39.97-.64,1.37-.15.31-.2.49-.16.54.11.07.27.12.5.17.41.06.85-.07,1.3-.4.45-.33,1.01-.94,1.67-1.83Zm-4.34.46c.03.12.06.13.1.05.04-.09.14-.32.31-.69.1-.24.18-.45.23-.63.05-.18.07-.29.07-.31-.03,0-.08.05-.16.13s-.15.18-.23.31c-.08.13-.14.25-.2.37-.05.12-.08.21-.1.28-.06.14-.07.31-.02.51Zm-.69-7.89c.02.36.04.77.06,1.21.02.44.04.85.07,1.23.02.38.05.7.07.95.03.26.04.4.05.43.05.08.18-.72.39-2.4.17-1.33.25-2.47.26-3.41,0-.94-.08-1.61-.26-2l-.2-.46-.17.5c-.15.28-.25.77-.3,1.48s-.04,1.53.02,2.47Z"></path>
            <path class="cls-19" d="m179.09,80.65l-5.47-7.92-1.64.3-.16-.88,5.34-.99.16.88-1.54.28,3.85,5.59h.04s1.59-6.6,1.59-6.6l-1.54.28-.16-.88,4.06-.75.16.88-1.6.3-2.22,9.34-.88.16Z"></path>
            <path class="cls-34" d="m261.51,114.33l2.07.13c-.02.19-.21.38-.55.43v3.37h5.7l.32-.13,1.32.6c-.04.08-.13.17-.24.23-.98,7.45-4.1,11.78-10.84,14.15-.19-.36-.66-.92-.98-1.28,6.32-2.18,9.24-6.13,9.99-12.12h-11.95v5.27h-1.52v-6.72h6.68v-3.93Zm5.34-.77c.88.94,1.92,2.28,2.43,3.29l-.88.51c-.49-.92-1.52-2.35-2.35-3.24l.79-.55Zm3.14-.51c.9.94,1.92,2.26,2.43,3.27l-.88.53c-.47-.94-1.49-2.33-2.35-3.24l.79-.56Z"></path>
            <path class="cls-25" d="m327.58,186.53c.06.25.04.46-.05.61-.09.15-.24.25-.44.3l-14.13,3.2c-.21.05-.39.02-.53-.08-.15-.1-.25-.27-.3-.53l-2.56-11.3c-.02-.07-.01-.13,0-.19.02-.05.07-.11.15-.17.08-.06.19-.11.32-.15.14-.04.31-.09.52-.14s.38-.08.53-.1c.14-.02.26-.02.34,0,.09.02.15.05.2.09.05.04.08.09.09.16l2.31,10.2,4.52-1.02-2.31-10.2c-.02-.07-.01-.13,0-.19.02-.05.06-.11.13-.17.07-.06.17-.11.3-.15.13-.04.3-.09.52-.14.2-.05.37-.08.51-.1.14-.02.26-.02.34,0,.09.02.15.05.2.09.05.04.08.09.09.16l2.31,10.2,4.54-1.03-2.31-10.2c-.02-.07-.01-.13,0-.19.02-.05.07-.11.14-.17.07-.06.18-.11.31-.15.13-.04.3-.09.51-.14s.4-.08.54-.1c.14-.02.26-.02.35,0,.09.02.16.05.21.09.05.04.08.09.09.16l2.56,11.3Z"></path>
            <path class="cls-11" d="m228.37,187.9c-.19-1.18-.18-2.33.03-3.45.2-1.12.6-2.13,1.19-3.03.59-.91,1.37-1.67,2.34-2.3.96-.62,2.11-1.04,3.43-1.25,1.31-.21,2.5-.17,3.58.12,1.08.29,2.02.76,2.82,1.42s1.45,1.47,1.96,2.44.85,2.02,1.03,3.17.18,2.33-.03,3.45-.6,2.13-1.19,3.03-1.37,1.67-2.34,2.29c-.96.62-2.11,1.04-3.43,1.25s-2.5.17-3.58-.12c-1.08-.29-2.02-.76-2.82-1.42s-1.46-1.47-1.96-2.44c-.51-.96-.85-2.02-1.03-3.17Zm3.73-.67c.22,1.37.49,2.5.82,3.37s.72,1.56,1.17,2.04.97.79,1.56.92,1.25.14,2,.02,1.36-.33,1.89-.65.94-.78,1.23-1.38c.29-.61.46-1.39.51-2.35.05-.95-.04-2.13-.26-3.53s-.49-2.5-.82-3.37-.72-1.56-1.17-2.04-.97-.79-1.57-.92c-.6-.13-1.26-.14-1.99-.02s-1.38.33-1.9.65c-.53.32-.93.78-1.22,1.38-.29.61-.46,1.39-.51,2.34-.05.96.04,2.13.26,3.53Zm2.12-11.91c-.2-.05-.38-.11-.55-.2s-.32-.2-.49-.33l3.39-8.55c1.01.24,2.03.72,3.07,1.43l-5.43,7.65Z"></path>
            <path class="cls-19" d="m299.37,136.1c.01.08,0,.14-.02.2s-.08.11-.16.17-.19.1-.34.15-.33.09-.56.14-.43.07-.58.08-.28,0-.37-.02-.16-.05-.21-.1-.08-.1-.09-.18l-1.44-7.43c-.14-.72-.31-1.3-.51-1.71s-.44-.77-.71-1.05-.61-.47-.98-.57c-.38-.1-.79-.11-1.24-.02-.58.11-1.13.43-1.63.96-.5.53-1,1.25-1.48,2.17l1.72,8.86c.01.08,0,.14-.02.2s-.08.11-.16.17-.19.1-.34.15-.34.09-.57.14-.42.07-.57.08-.28,0-.38-.01-.17-.05-.21-.1c-.04-.05-.07-.11-.09-.18l-2.45-12.68c-.01-.08-.01-.14,0-.2.02-.06.07-.11.14-.17.08-.06.18-.11.31-.15.13-.04.3-.08.52-.12s.38-.07.52-.08c.14-.01.25,0,.33.02.08.03.15.07.19.11.04.05.07.11.09.18l.32,1.68c.56-.94,1.16-1.66,1.8-2.17.64-.51,1.32-.83,2.04-.97.85-.16,1.59-.16,2.22.02.63.17,1.18.47,1.62.88s.81.92,1.09,1.54c.28.61.51,1.37.68,2.27l1.5,7.74Zm-4.3-18.01c.19,1,.1,1.8-.29,2.42s-1,1.01-1.83,1.17c-.35.07-.67.08-.96.05s-.56-.1-.81-.2-.49-.21-.71-.33-.43-.24-.64-.34c-.21-.11-.41-.19-.61-.24-.2-.05-.4-.06-.6-.02-.38.07-.61.26-.71.56s-.1.68-.02,1.13c.01.07.01.13,0,.18s-.04.1-.1.14c-.06.04-.14.08-.26.11s-.26.07-.44.1c-.15.03-.28.05-.38.05-.11,0-.19,0-.26-.04-.07-.03-.13-.08-.17-.16-.04-.07-.08-.17-.1-.29-.18-.93-.09-1.72.27-2.36s.98-1.05,1.85-1.22c.51-.1.96-.09,1.37.03.4.12.78.27,1.12.44.34.17.66.33.96.48.3.15.59.19.9.13.34-.07.57-.24.7-.52.12-.28.14-.67.05-1.16-.03-.15,0-.26.09-.33.09-.07.3-.14.63-.2.35-.07.58-.08.71-.03.13.05.21.19.26.44Z"></path>
            <path class="cls-11" d="m346.22,167.18c.13.52-.19,1.05-.71,1.17s-1.05-.19-1.17-.71l-.09-.36c-.68,1.1-1.8,1.93-3.24,2.29-3.09.76-6.08-1.06-6.84-4.12-.75-3.05,1.1-6.09,4.12-6.84,1.46-.36,2.83-.14,3.95.52l-.09-.36c-.13-.52.19-1.05.71-1.17s1.01.2,1.17.71l2.18,8.88Zm-4.57-10.63c-.14.03-.27.02-.41-.03l-3.78-1.54-2.64,3.11c-.1.11-.21.18-.35.21-.18.04-.36,0-.51-.11-.1-.08-.17-.19-.2-.31-.04-.18,0-.38.1-.56l2.2-4.09c.21-.37.37-.58.81-.69s.7,0,1.03.23l3.85,2.6c.18.11.3.27.34.45.03.12.02.25-.04.37-.09.17-.23.29-.41.33Zm-2.92,3.76c-2.1.52-3.19,2.57-2.68,4.65s2.43,3.42,4.52,2.91c2.16-.53,3.19-2.57,2.68-4.67s-2.39-3.41-4.51-2.89Z"></path>
          </g>
          <g>
            <g>
              <path class="cls-24" d="m407.17,541.31l-4.77-1.4c-.94-.28-1.5-1.33-1.24-2.34l38.51-152.09c.26-1.02,1.23-1.61,2.17-1.34l4.77,1.4c.94.28,1.5,1.33,1.24,2.34l-38.51,152.09c-.26,1.02-1.23,1.61-2.17,1.34Z"></path>
              <path class="cls-24" d="m557.77,539.15l-4.73,1.56c-.93.31-1.92-.26-2.21-1.27l-42.75-150.77c-.29-1.01.24-2.07,1.17-2.38l4.73-1.56c.93-.31,1.92.26,2.21,1.27l42.75,150.77c.29,1.01-.24,2.07-1.17,2.38Z"></path>
              <rect class="cls-24" x="424.51" y="450.96" width="109.01" height="8.48" rx="1.53" ry="1.53"></rect>
            </g>
            <g>
              <path class="cls-14" d="m432.23,326.97c1.13-17.27,3.63-34.44,7.76-51.25,3.1-12.57,6.89-24.08,10.6-25.25,8.48-2.68,89.72-3.12,99.52,1.34,9.8,4.46-5.37,146.79-29.91,153.49-24.54,6.69-125.4,2.23-128.51,0-3.11-2.23-1.77-28.11,4.47-29.45,6.25-1.34,32.57-6.69,32.57-6.69,0,0,2.01-19.37,3.5-42.18Z"></path>
              <path class="cls-6" d="m520.19,405.3c-24.54,6.69-125.39,2.23-128.51,0-1.84-1.33-2.13-10.95-.75-18.84,30.78,1.89,92.28,3.15,110.72-1.88,19.4-5.29,32.94-95.35,32.93-135.04,7.65.54,13.35,1.28,15.52,2.27,9.81,4.46-5.37,146.79-29.91,153.49Z"></path>
            </g>
          </g>
          <g>
            <rect class="cls-15" x="28.4" y="272.25" width="80.65" height="18.15"></rect>
            <path class="cls-7" d="m42.5,283.31c4.43-.14,10.84-.16,15.34-.17,5.11.02,10.23.04,15.34.17.18,0,.32.15.31.33,0,.17-.14.31-.31.31-5.11.14-10.23.16-15.34.17l-7.67-.03c-2.56-.03-5.11-.07-7.67-.14-.4,0-.41-.64,0-.64h0Z"></path>
            <path class="cls-7" d="m83.07,278.07c2.93-.14,7.17-.16,10.14-.17,3.38.02,6.76.04,10.14.17.18,0,.32.16.31.34,0,.17-.14.3-.31.31-3.38.14-6.76.16-10.14.17l-5.07-.03c-1.69-.03-3.38-.07-5.07-.14-.4,0-.4-.63,0-.64h0Z"></path>
            <path class="cls-19" d="m37.7,278.4c.2.38,1.8,3.3,2.27,3.47s16.31-3.47,16.31-3.47h-18.58Z"></path>
            <path class="cls-19" d="m77.59,281.87s9.56,3.02,11.78,2.43c2.23-.59,4.82-2.43,4.82-2.43h-16.61Z"></path>
            <path class="cls-7" d="m36.56,278.07c3.52-.14,8.61-.16,12.18-.17,4.06.02,8.12.04,12.18.17.18,0,.32.16.31.33,0,.17-.14.31-.31.31-4.06.14-8.12.16-12.18.17l-6.09-.03c-2.03-.03-4.06-.07-6.09-.14-.4,0-.41-.64,0-.64h0Z"></path>
          </g>
          <path class="cls-34" d="m526.81,266.64c.63.03,1.19.06,1.67.09-.47-.02-1.04-.05-1.67-.09Z"></path>
          <g>
            <rect class="cls-26" x="532.9" y="62.05" width="99.61" height="11.64"></rect>
            <path class="cls-10" d="m634.41,134.56c-30.13,2.21-65.39,1.36-101.51,0v-60.87s99.61,0,99.61,0c.74,23.56,1.41,44.92,1.91,60.87Z"></path>
            <path class="cls-5" d="m634.41,134.56c-24.11,1.77-51.51,1.58-80.01.73h0c-.8-.02-1.61-.04-2.41-.07h-.02c-5.54-.4-18.63-2.74-19.06-15.92v-45.61h99.6c.74,23.55,1.41,44.92,1.91,60.87Z"></path>
            <g class="cls-3">
              <g>
                <rect class="cls-15" x="544.19" y="78.35" width="10.43" height="9.8"></rect>
                <rect class="cls-15" x="560.84" y="78.35" width="10.43" height="9.8"></rect>
                <rect class="cls-15" x="577.48" y="78.35" width="10.43" height="9.8"></rect>
                <rect class="cls-15" x="594.13" y="78.35" width="10.43" height="9.8"></rect>
                <rect class="cls-15" x="610.78" y="78.35" width="10.43" height="9.8"></rect>
              </g>
              <g>
                <rect class="cls-15" x="544.19" y="92" width="10.43" height="9.8"></rect>
                <rect class="cls-15" x="560.84" y="92" width="10.43" height="9.8"></rect>
                <rect class="cls-15" x="577.48" y="92" width="10.43" height="9.8"></rect>
                <rect class="cls-15" x="594.13" y="92" width="10.43" height="9.8"></rect>
                <rect class="cls-15" x="610.78" y="92" width="10.43" height="9.8"></rect>
              </g>
              <g>
                <rect class="cls-15" x="544.19" y="105.65" width="10.43" height="9.8"></rect>
                <rect class="cls-15" x="560.84" y="105.65" width="10.43" height="9.8"></rect>
                <rect class="cls-15" x="577.48" y="105.65" width="10.43" height="9.8"></rect>
                <rect class="cls-15" x="594.13" y="105.65" width="10.43" height="9.8"></rect>
                <rect class="cls-15" x="610.78" y="105.65" width="10.43" height="9.8"></rect>
              </g>
              <g>
                <rect class="cls-15" x="544.19" y="119.3" width="10.43" height="9.8"></rect>
                <rect class="cls-15" x="560.84" y="119.3" width="10.43" height="9.8"></rect>
                <rect class="cls-15" x="577.48" y="119.3" width="10.43" height="9.8"></rect>
                <rect class="cls-15" x="594.13" y="119.3" width="10.43" height="9.8"></rect>
                <rect class="cls-15" x="610.78" y="119.3" width="10.43" height="9.8"></rect>
              </g>
            </g>
            <path class="cls-19" d="m554.39,135.29c-.12,0-1.03.03-2.41-.07h-.02c-5.54-.4-18.63-2.74-19.06-15.92,0,0,6.13,1.81,16.52,0,0,0,.12,12.09,4.97,15.99Z"></path>
          </g>
          <g>
            <g>
              <path class="cls-26" d="m214.29,290.4h-101.85c.77-29.25,8.07-52.15,21.24-69.32.47-.62,1.21-.97,1.99-.97h78.62s0,70.29,0,70.29Z"></path>
              <path class="cls-23" d="m171.12,233.98c-3.19,6.05-5.8,12.66-7.83,19.84-1.75,6.18-3.08,12.8-3.96,19.84h-34.45c.2-7.31,1.1-13.92,2.72-19.84,2.02-7.48,5.14-13.88,9.27-19.29.27-.35.69-.55,1.13-.55h33.13Z"></path>
              <path class="cls-17" d="m271.68,220.11v70.29h-101.85c.79-29.81,8.35-53.01,21.99-70.29h79.86Z"></path>
              <g>
                <rect class="cls-23" x="182.85" y="265.63" width="50.11" height="11.3"></rect>
                <g>
                  <circle class="cls-26" cx="190.34" cy="271.28" r="2.56"></circle>
                  <circle class="cls-26" cx="202.27" cy="271.28" r="2.56"></circle>
                  <circle class="cls-26" cx="214.19" cy="271.28" r="2.56"></circle>
                  <circle class="cls-26" cx="226.11" cy="271.28" r="2.56"></circle>
                </g>
              </g>
              <path class="cls-36" d="m163.29,253.82c-1.75,6.18-3.08,12.8-3.96,19.84h-34.45c.2-7.31,1.1-13.92,2.72-19.84h35.7Z"></path>
            </g>
            <g>
              <path class="cls-19" d="m70.53,268.43s8.86-1.62,22.09-.35c25.24,2.42,38.81,1.41,38.81,1.41,0,0-4.71-4.88-21.61-6.38-16.9-1.5-29.28.88-39.28,5.32Z"></path>
              <path class="cls-15" d="m127.96,253.87h35.41s-2.46,11.45-31.17,15.51c-2.85.4-7.05.91-7.05.91-14.53-.53-28.66-7.4-54.62-1.86,0,0,3.22-5.77,22.02-8.48,8.76-1.26,28.02,1.35,35.42-6.08Z"></path>
              <g>
                <g>
                  <path class="cls-35" d="m115.86,260.41c-.5.19-.93.4-1.3.64-.21.03-.42.05-.65.08-.89.3-2,.63-2.95.88-.5.13-1.12.28-2.4.49-.51.06-.92.09-1.32.1-.58.02-1.06,0-1.31-.06-.34-.07-.37-.17-.12-.3.24-.12.75-.27,1.49-.45.64-.15,1.38-.29,2.15-.43.01.02.02.03.03.06-.51.09-1.02.19-1.46.3-.45.11-.78.21-.99.32-.26.13-.24.22.03.27.26.05.63.06,1.04.05.39,0,.78-.03,1.14-.08.17-.04.33-.07.48-.11,1.13-.27,2.44-.63,3.96-1.16.28-.1.58-.21.89-.32.2-.07.41-.13.63-.18.2-.04.43-.08.67-.12,0,0,0,0,0,.01Z"></path>
                  <path class="cls-35" d="m119.75,261.15c-.39.14-.79.35-1.22.63-.21.03-.43.06-.66.08-.96.34-1.94.64-2.93.9-.45.12-1.36.29-2.01.37-1.07.04-1.92-.03-2.35-.12-.51-.1-.55-.23-.29-.37.23-.13.65-.25,1.14-.37.61-.15,1.21-.28,1.81-.39.02.02.03.03.05.05-.34.07-.69.15-1.02.23-.67.18-1,.31-1.04.43-.03.1.13.17.39.22.41.08,1,.13,1.95.11.22,0,.38-.04,1.15-.24.81-.22,1.83-.53,2.84-.9.39-.14.68-.26.91-.34.3-.11.52-.17.74-.21.19-.04.38-.07.54-.09,0,0,0,0,0,.02Zm-3.38.57s0-.01,0-.02c-.39.01-.76.06-1.11.14.12.02.19.03.31.06.28.05.2.14-.14.24-.69.21-1.4.22-1.75.16-.1-.02-.18-.04-.22-.06,0-.05.01-.08.02-.13.02,0,.03,0,.05-.01.53.09,1.28.12,1.56.04.07-.02-.02-.04-.29-.09-.25-.05-.35-.07-.26-.09.11-.03.17-.05.28-.08.3-.09.71-.17,1.22-.26.46-.08.9-.12,1-.11.06.01.04.04-.07.07-.12.04-.35.1-.59.15,0,0,0,0-.02,0Z"></path>
                  <path class="cls-35" d="m119.58,263.32c.52-.2.67-.31.55-.32-.19-.03-.67,0-1.19.05-.55.06-1.08.13-1.34.2-.64.18.57.34.46.5-.06.07-.22.14-.63.25-.39.1-1.22.24-1.76.28-1.14.09-2.39.09-2.97-.02-1-.19-.22-.51,1.35-.89.7-.17,1.37-.3,2.03-.42.03.02.04.03.07.05-.58.12-1.03.22-1.41.31-1.4.35-1.66.6-.95.73.27.05.92.09,1.81.06.57-.02,1.19-.06,1.3-.09.22-.06.07-.15-.2-.24-.29-.09-.44-.17-.34-.25.08-.06.22-.12.5-.2.73-.2,1.52-.35,2.31-.46.81-.11,1.77-.21,2.07-.17.14.02.13.07-.05.17-.17.09-.36.17-.55.23-.17.05-.64.16-.97.22-.03,0-.05,0-.08,0Zm-9.54,1.37c.15-.09.25-.17.35-.25.4-.03.79-.06,1.11-.08-.08.08-.2.16-.38.26-.45.04-.75.06-1.08.08Zm.94.14c.14-.09.25-.17.35-.26.41-.03.79-.06,1.11-.08-.08.08-.2.16-.37.26-.45.04-.75.06-1.09.08Z"></path>
                  <path class="cls-35" d="m126.13,264.12c.52-.23.66-.35.52-.36-.22-.02-.72.03-1.28.11-.58.08-1.14.18-1.4.27-.64.21.69.33.61.51-.05.07-.2.16-.62.29-.4.12-1.25.3-1.81.37-1.19.13-2.51.17-3.14.06-1.1-.18-.36-.55,1.2-.98.69-.19,1.37-.35,2.05-.5.03.02.05.03.09.05-.58.14-1.04.26-1.42.37-1.39.4-1.6.69-.82.8.29.04.99.07,1.93.01.6-.04,1.25-.11,1.36-.14.23-.07.04-.17-.27-.24-.33-.08-.51-.17-.42-.25.07-.06.2-.14.48-.23.74-.23,1.55-.42,2.37-.57.85-.15,1.87-.3,2.21-.28.16.01.16.07-.01.18-.16.1-.36.2-.55.27-.17.07-.66.19-1,.28-.04,0-.05,0-.09,0Zm-9.79,1.78c.13-.11.23-.19.31-.29.41-.04.81-.08,1.14-.11-.07.09-.17.18-.33.29-.46.05-.77.08-1.11.1Zm1.01.14c.13-.11.23-.2.31-.29.42-.05.82-.09,1.14-.12-.06.09-.17.19-.33.3-.46.05-.77.09-1.12.11Z"></path>
                  <path class="cls-35" d="m129.68,264.65c-1.02.1-2.01.19-2.92.29-.97.11-1.92.27-2.52.45-1.3.39-1.34.78.03.96.5.07,1.05.1,1.53.1-.04.02-.07.03-.11.05-.57.06-1.18.12-1.78.16-.31.02-.7,0-1.1-.06-1.21-.18-1.22-.57.78-1.16,1.02-.3,2.17-.52,3.28-.7.03-.25.21-.41.84-.65.31-.12.81-.28,1.32-.41.77-.2,1.41-.31,1.78-.3.45.02.49.17.22.44-.09.02-.14.04-.23.06-.1-.09-.29-.13-.57-.14-.57-.03-1.42.1-1.72.22-.32.13-.45.24-.48.39,0,.09.04.18.14.19.1,0,.27-.01.41-.03.78-.08,1.53-.17,2.25-.24,0,0,0,0,0,.01-.46.15-.7.23-1.16.37Z"></path>
                  <path class="cls-35" d="m140.04,262.24c-.53.29-.93.59-1.23.9-.25.08-.51.15-.81.22-.93.49-2.09,1.06-3.08,1.5-.52.23-1.17.52-2.58.95-.57.15-1.05.24-1.51.3-.68.1-1.27.12-1.62.09-.46-.04-.59-.16-.4-.34.18-.17.65-.39,1.39-.67.64-.24,1.42-.49,2.25-.74.04.02.05.03.09.05-.56.17-1.09.35-1.53.52-.45.18-.76.33-.92.47-.2.17-.1.28.28.31.36.03.81-.01,1.3-.08.47-.07.93-.15,1.33-.26.18-.07.35-.13.5-.2,1.18-.49,2.52-1.12,4.08-1.95.29-.15.59-.33.92-.5.21-.11.43-.22.7-.31.23-.08.51-.18.81-.27,0,0,.01,0,.02.01Z"></path>
                  <path class="cls-35" d="m136.22,265.43c-.62-.01-1.28.14-1.51.23-.84.35-2.01,1-3.57,1.69-.17.08-.47.19-.73.28-.45.16-.95.3-1.45.44-.04,0-.06-.01-.1-.02,1.06-.36,2.43-1.02,3.82-1.71.23-.11.58-.27.84-.38.37-.15.77-.29,1.21-.43.56-.18,1.1-.35,1.53-.44.3-.16.65-.34.93-.47.32-.15.91-.36,1.25-.45.34-.09.65-.16.85-.17.27,0,.41.04.39.15-.05.19-.26.44-.66.74-.09.07-.28.17-.44.25-.27.13-.72.29-1.06.4-.4-.06-.81-.1-1.32-.11Zm2.04-.41c.29-.29.51-.56-.03-.56-.11,0-.27.02-.43.04-.15.08-.23.12-.39.19-.32.14-.66.27-.89.35.29-.04.62-.06.91-.06.19,0,.51.03.73.07.04-.02.07-.03.11-.04Z"></path>
                </g>
                <g>
                  <path class="cls-35" d="m130.58,256.89c-.13.18-.32.35-.52.55-.11.11-.42.33-.1.36.09.01.27,0,.48-.04.23-.04.48-.12.74-.24.28-.13.42-.19.69-.32.2-.03.3-.05.5-.08,0,0,0,.01,0,.02-.25.12-.45.23-.62.33-.47.28-.36.43-.11.46.14.02.36-.03.54-.13.23-.14.54-.37.78-.58.32-.09.64-.18.95-.25,0,0,0,0,0,.01-.3.23-.65.47-.91.63-.26.15-.64.32-.91.43-.53.21-1.1.38-1.42.34-.24-.03-.33-.16-.21-.37,0,0,0,0-.01,0-.47.16-1.02.3-1.46.25-.05,0-.08,0-.14-.02-.43.24-.79.41-1.15.56-1.01.42-2.34.68-3.09.59-1.05-.12-.69-.74.42-1.41.69-.41,1.46-.75,2.12-.97.04.03.06.05.1.09-.54.21-1.02.42-1.39.64-1.02.61-.93,1.01-.22,1.09.65.07,2.04-.2,2.85-.58.67-.44.8-.66,1.11-1.05.29-.11.6-.21.95-.32.01,0,.02,0,.03,0Zm1.82-.34c-.01-.14-.04-.26-.09-.38.31-.09.61-.17.86-.22.07.11.09.22.08.37-.34.1-.58.17-.85.23Zm1.31-.59c-.03-.13-.08-.23-.15-.34.29-.08.57-.15.8-.2.09.1.13.2.15.33-.32.09-.54.15-.8.21Zm-.26.66c0-.14-.03-.26-.08-.38.31-.09.61-.17.85-.23.06.11.08.22.07.37-.34.1-.57.17-.85.24Z"></path>
                  <path class="cls-35" d="m137.28,257.63c-.14.18-.33.35-.54.55-.12.11-.42.33-.12.36.09,0,.25,0,.45-.05.22-.05.45-.12.71-.24.27-.13.41-.2.67-.33.19-.04.29-.05.48-.09,0,0,0,.01,0,.02-.24.12-.45.24-.6.34-.46.28-.36.43-.14.45.13.01.34-.03.52-.14.22-.14.53-.37.77-.58.31-.1.62-.2.92-.27,0,0,0,0,0,.01-.31.24-.65.48-.91.64-.25.16-.62.32-.88.44-.51.21-1.06.38-1.35.35-.22-.02-.3-.15-.17-.35,0,0,0,0,0,0-.45.16-.97.3-1.38.26-.05,0-.08,0-.13-.01-.41.24-.76.41-1.1.56-.96.42-2.22.67-2.91.6-.96-.1-.58-.69.51-1.35.67-.41,1.42-.75,2.06-.97.03.03.05.05.08.08-.52.21-.98.42-1.35.65-1,.61-.95.98-.31,1.05.6.06,1.91-.22,2.68-.6.65-.43.79-.64,1.12-1.03.28-.11.58-.22.91-.33,0,0,.01,0,.02,0Z"></path>
                  <path class="cls-35" d="m140.76,259.74c-1.3-.11-1.66-.6-.29-1.45.45-.28.96-.54,1.57-.78.04.03.06.04.1.07-.38.18-.7.34-.94.49-1.1.68-.68,1.08.5,1.18.55.05,1.18.03,1.84-.02.28-.02.55-.05.85-.1.05,0,.09-.02.11-.04.26-.17.59-.53.89-.89.34-.14.65-.25.94-.35,0,0,.01,0,.02,0-.2.29-.62.73-1.17,1.08-.42.26-.79.41-1.19.57-.71.16-2.3.31-3.23.23Zm3.51-2.32c0-.14,0-.26-.03-.38.29-.1.58-.2.82-.27.04.11.04.23.02.38-.32.12-.55.19-.81.27Zm1.28-.66c0-.14-.03-.25-.07-.36.28-.1.55-.19.78-.26.06.11.07.22.07.36-.31.11-.52.19-.78.26Zm-.32.69c0-.14,0-.26-.03-.38.29-.1.58-.2.82-.27.04.11.04.23.02.38-.32.12-.55.2-.81.27Z"></path>
                  <path class="cls-35" d="m148.62,258.87c-.31-.18-.57-.25-1-.28-.27-.02-.56.03-.86.13-.15.12-.22.18-.37.3-.23.11-.34.16-.57.27-.03,0-.04,0-.07,0,.25-.23.37-.35.6-.57.64-.38,1.41-.58,1.97-.54.31.02.68.14,1.08.4.12.08.29.14.64.16.17,0,.25.01.42.02,0,0,0,0,0,0-.33.13-.5.2-.83.33-.36,0-1.31.11-1.62.15-1.48.22-2.86.59-3.63,1.07-1.21.76-.87,1.29.48,1.36.44.02.9.01,1.37-.01-.02.02-.03.02-.04.04-.49.14-1.03.3-1.47.4-.31.02-.68.04-1.02.02-1.28-.07-1.57-.63.06-1.66,1.39-.88,3.37-1.46,4.86-1.59,0,0,0,0,.01-.01Zm-1.88,1.15c.02.12,0,.26-.04.42-.31.12-.63.24-.96.33.03-.15.03-.28.03-.41.33-.12.66-.24.97-.34Z"></path>
                  <path class="cls-35" d="m153.58,259.2c-.88.14-1.74.3-2.51.47-.82.19-1.6.46-2.04.74-.94.6-.71,1.08.64,1.14.49.02,1,0,1.42-.05-.03.03-.04.04-.06.07-.46.13-.95.26-1.45.37-.26.06-.61.09-1.01.07-1.2-.06-1.54-.54-.09-1.48.74-.47,1.67-.84,2.59-1.11-.1-.3,0-.5.46-.8.23-.15.61-.35,1.02-.52.62-.25,1.15-.38,1.5-.36.43.02.52.19.39.49-.08.03-.11.04-.19.07-.13-.1-.32-.14-.58-.15-.54-.03-1.26.15-1.48.29-.24.16-.31.29-.26.46.03.1.12.21.22.22.1,0,.24-.03.36-.05.67-.13,1.32-.24,1.94-.34,0,0,0,0,0,.01-.36.18-.54.27-.89.45Zm1.67-2.56c.06.11.08.24.06.4-.29.12-.59.23-.9.33,0-.14-.03-.25-.06-.38.31-.12.61-.24.9-.34Z"></path>
                </g>
              </g>
            </g>
          </g>
          <g>
            <g>
              <g>
                <path class="cls-28" d="m640.94,456.22c-.25-22.25.28-44.55,2.83-66.67.89-7.36,1.96-14.75,4.08-21.9.05-.17.23-.27.4-.22.17.05.26.22.22.38,0,0-1.32,5.39-1.32,5.39-3.86,20-4.56,40.47-5.25,60.78-.18,7.4-.3,14.82-.32,22.22,0,.18-.14.32-.32.32-.18,0-.32-.14-.32-.32h0Z"></path>
                <path class="cls-28" d="m627.05,365.74c4.97,27.99,4.89,56.76,3.46,85.08,0,.18-.16.31-.34.31-.18,0-.32-.16-.31-.34.85-21.2.86-42.68-.88-63.82-.63-7.05-1.34-14.13-2.58-21.1-.04-.18.08-.35.26-.39.17-.03.34.08.37.25h0Z"></path>
                <path class="cls-28" d="m646.67,332.03c-4.03,19.47-6.01,39.33-7.55,59.14-1.54,19.49-2.17,40.06-2.47,59.64,0,.18-.15.32-.33.32-.18,0-.32-.15-.32-.32.04-19.62.68-40.18,2.13-59.71,1.6-19.86,3.6-39.73,7.91-59.22.04-.17.21-.28.39-.24.18.04.28.22.24.39h0Z"></path>
                <path class="cls-28" d="m633.78,456.19c2.21-42.44,3.25-85.45-3.96-127.49-.04-.17.08-.34.25-.38.17-.03.34.08.38.25,5.94,31.5,6.31,63.75,5.57,95.7-.29,10.66-.78,21.32-1.6,31.96-.01.18-.17.31-.35.3-.18-.01-.31-.17-.3-.35h0Z"></path>
                <path class="cls-28" d="m624.88,395.77c3.16,21.09,5.01,42.46,4.26,63.8,0,.18-.16.32-.33.31-.18,0-.31-.16-.31-.33.29-15.97-.81-31.93-2.4-47.82-.56-5.29-1.16-10.59-1.85-15.86-.03-.18.1-.34.27-.36.17-.02.33.1.36.27h0Z"></path>
                <path class="cls-28" d="m620.59,388.06c2.98,20.69,3.76,41.84,4.07,62.73,0,.18-.14.32-.32.33-.18,0-.32-.14-.33-.31-.5-15.7-1.2-31.39-2.47-47.04-.46-5.21-.92-10.43-1.6-15.61-.06-.38.57-.53.64-.09h0Z"></path>
              </g>
              <g>
                <path class="cls-26" d="m580.67,205.74s9.04,9.7,35.14,23.09c26.1,13.39,34.8,37.6,31.79,65.95-1.63,15.34-17.46,33.86-17.46,33.86,0,0-19.68-45.18-30.06-61.45-10.37-16.27-19.53-22.3-19.41-61.45Z"></path>
                <path class="cls-29" d="m580.67,206.21s3.95,22.09,26.24,51.87c22.28,29.78,23.23,71.03,23.23,71.03,0,0-12.05-5.11-24.73-18.16-12.69-13.05-5.72-31.7-15.4-43.29-9.67-11.59-20.71-27.32-9.34-61.45Z"></path>
              </g>
              <g>
                <path class="cls-26" d="m691.17,349.02s4.18-2.68,5.35-9.37c1.17-6.69,1.51-7.7,1.51-7.7,0,0-8.9,8.2-27.64,10.21-18.74,2.01-33.94,15.56-25.35,46.46,0,0,.45-18.18,13.5-24.21,13.05-6.02,27.6-7.49,32.63-15.39Z"></path>
                <path class="cls-29" d="m645.05,388.62s-.39-23.37,7.64-25.88,5.19-4.18,10.21-8.7c5.02-4.52,20.08.33,28.28-5.02,0,0-4.8,12.38-23.06,15.56-18.26,3.18-23.06,24.04-23.06,24.04Z"></path>
              </g>
              <path class="cls-22" d="m551.78,338.29s22.81,11.09,38.54,25.06c15.73,13.96,29.95,24.77,29.95,24.77,0,0-2.9-20.6-10.26-24.91s-10.26-1.41-14.28-11.23-22.98-22.23-43.95-13.68Z"></path>
              <g>
                <path class="cls-29" d="m624.34,400.16c-3.67-10.88-21.75-11.71-33.63-19.74-11.88-8.03-7.03-22.42-7.03-22.42,0,0,6.02,7.86,19.58,9.53,13.56,1.68,24.1,6.87,26.43,14.73,2.35,7.86-5.35,17.9-5.35,17.9Z"></path>
                <path class="cls-26" d="m624.34,400.16s2.84-13.22-10.04-19.07c-12.89-5.86-27.44-11.88-30.62-23.09,0,0,6.02,7.86,19.58,9.53,13.56,1.68,24.1,6.87,26.43,14.73,2.35,7.86-5.35,17.9-5.35,17.9Z"></path>
              </g>
              <g>
                <path class="cls-29" d="m626.74,365.8s3.01-19.48-6.47-30.37c-9.48-10.9-19.52-18.59-23.2-37.33,0,0-12.72,19.07-4.02,32.12,8.7,13.05,24.6,16.56,33.69,35.58Z"></path>
                <path class="cls-26" d="m597.07,298.1s8.92,8.37,23.2,13.05c14.28,4.68,17.96,12.49,17.29,20.8s3.68,9.98,3.68,15.34c0,9.37-14.5,18.52-14.5,18.52,0,0-.56-15.73-6.02-23.09-5.47-7.36-26.32-29.56-23.65-44.62Z"></path>
              </g>
              <g>
                <path class="cls-26" d="m646.36,331.95s-6.96-12.94-5.12-28.83c1.84-15.9,5.52-16.73,12.05-21.42,6.53-4.68,8.7-18.91,30.12-24.09,0,0,10.04,4.68,3.01,27.44,0,0-4.85,13.55-19.07,22.25-14.22,8.7-18.03,18.18-20.98,24.65Z"></path>
                <path class="cls-29" d="m646.36,331.95s3.07-24.65,10.1-26.66,25.43-10.04,29.95-20.25c0,0-6.19,18.7-22.76,30.45-16.56,11.75-17.3,16.45-17.3,16.45Z"></path>
              </g>
            </g>
            <g>
              <path class="cls-11" d="m657.04,536.29h-49.49c-5.4-12.65-10.22-26.02-13.44-39.51-4.52-18.89-5.91-38.03-1.38-55.79.63-2.47,1.38-4.92,2.25-7.34h74.62c.87,2.41,1.62,4.86,2.25,7.34,7.78,30.44-1.86,64.94-14.81,95.3Z"></path>
              <path class="cls-25" d="m679.31,435.52v.89c0,2.53-2.05,4.58-4.58,4.58h-83.87c-2.53,0-4.58-2.05-4.58-4.58v-.89c0-2.52,2.05-4.57,4.58-4.57h83.87c2.53,0,4.58,2.05,4.58,4.57Z"></path>
            </g>
            <path class="cls-13" d="m679.31,435.52v.89c0,2.53-2.05,4.58-4.58,4.58h-2.88c7.78,30.44-1.86,64.94-14.81,95.3h-49.49c-5.4-12.65-10.22-26.02-13.44-39.51,22.93-9.85,43.06-31.95,51.89-55.79.9-2.43,1.68-4.88,2.34-7.34.24-.9.46-1.8.66-2.7h25.73c2.53,0,4.58,2.05,4.58,4.57Z"></path>
          </g>
          <g>
            <g>
              <path class="cls-25" d="m499.98,191.09c-1.45-.34-2.27-.45-1.99-.14.41.45.49.87.28,1.26-.43.82-2.18,1.49-4.86,2.05-12.28,2.54-44.4,2.58-63.12,2.36-5.26-.06-11.29-.11-14.94-.15,0-1.03.04-2.07.12-3.1.01-.17.02-.34.05-.51.07-1,.18-2,.32-2.99,1.29-9.12,4.97-18.85.92-27.14-1.13-2.32-2.81-4.33-4.33-6.43-10.43-14.48-11.37-35.48-5.2-52.09.26-.7.54-1.38.83-2.03.59-1.3,1.24-2.49,1.96-3.57.12-.17.24-.35.36-.52.12-.18.24-.34.37-.51.63-.83,1.3-1.57,2.02-2.22.14-.13.28-.26.43-.38.15-.13.3-.25.45-.36.45-.35.91-.66,1.39-.94.28-.16.56-.31.85-.44.08-.04.15-.07.23-.11.28-.12.55-.24.84-.34.37-.13.76-.24,1.15-.34.17-.04.34-.08.51-.11.86-.16,1.77-.24,2.71-.21,2.31.06,4.59-.4,6.62-1.49,3.56-1.92,11.08-4.2,25.71-2.5.6.07,1.18.16,1.75.27.19.03.38.06.57.11.29.05.57.11.85.18.33.08.66.17.98.26.33.09.66.19.98.3.32.1.64.22.95.33.32.11.63.23.93.37.46.19.92.4,1.36.62,1.33.66,2.59,1.43,3.77,2.29.15.11.3.22.44.33.31.24.81.63,1.1.89.37.32.73.64,1.09.98,1.75,1.63,3.32,3.5,4.72,5.54.04.05.07.11.11.16.2.3.41.6.6.91.57.88,1.11,1.79,1.62,2.72.13.23.25.45.36.68.37.7.95,1.85,1.28,2.57s.66,1.47.97,2.21c.02.05.04.1.06.15.27.66.53,1.33.78,2,.25.67.49,1.35.72,2.03.24.69.46,1.38.67,2.07.21.69.42,1.38.61,2.08.2.7.38,1.4.56,2.1.19.75.37,1.5.54,2.25.12.54.24,1.07.35,1.61.03.12.05.24.07.35.15.7.28,1.4.41,2.09.14.74.27,1.48.39,2.22.22,1.34.42,2.66.58,3.96.27,2.02.47,3.98.63,5.86.05.63.1,1.24.14,1.85.04.58.08,1.17.13,1.76.18,2.22.92,4.35,2.1,6.24,0,0,.01.02.02.03,3.99,6.43,6.06,14.04,5.9,21.61v.03c-.07,3.63.88,12.72,9.25,17.9.78.48-.28,1.76-2.03,3.04Z"></path>
              <path class="cls-2" d="m499.98,191.09c-.52.38-1.1.76-1.71,1.12-1.59.94-3.38,1.74-4.86,2.05-1.18-.93-4.31-2.89-8.16-7.76-3.43-4.33-5.62-16.27-9.3-26.52-2.49-6.95-6.63-10.25-8.56-20.95-.63-3.51-1.38-6.45-2.23-8.92-5.25-15.39-14.15-12.49-21.16-16.5-10.92-6.26-16.66-18.66-19.17-17.7-1.73.66-10.23-3.56-17.6,8.3.26-.7.54-1.38.83-2.03.59-1.3,1.24-2.49,1.96-3.57.12-.17.24-.35.36-.52.12-.18.24-.34.37-.51.63-.83,1.3-1.57,2.02-2.22.14-.13.28-.26.43-.38.15-.13.3-.25.45-.36.45-.35.91-.66,1.39-.94.28-.16.56-.31.85-.44.08-.04.15-.07.23-.11.28-.12.55-.24.84-.34.37-.13.76-.24,1.15-.34.17-.04.34-.08.51-.11.86-.16,1.77-.24,2.71-.21,2.31.06,4.59-.4,6.62-1.49,3.56-1.92,11.08-4.2,25.71-2.5.6.07,1.18.16,1.75.27.19.03.38.06.57.11.29.05.57.11.85.18.33.08.66.17.98.26.33.09.66.19.98.3.32.1.64.22.95.33.32.11.63.23.93.37.46.19.92.4,1.36.62,1.34.65,2.59,1.42,3.77,2.29.15.11.3.22.44.33.31.24.81.63,1.1.89.37.32.73.64,1.09.98,1.76,1.67,3.32,3.58,4.69,5.66l.03-.12s.07.11.11.16c.2.3.41.6.6.91.57.88,1.11,1.79,1.62,2.72.13.23.25.45.36.68.37.7.95,1.85,1.28,2.57s.66,1.47.97,2.21c.02.05.04.1.06.15.27.66.53,1.33.78,2,.25.67.49,1.35.72,2.03.24.69.46,1.38.67,2.07.21.69.42,1.38.61,2.08.2.7.38,1.4.56,2.1.19.75.37,1.5.54,2.25.12.54.24,1.07.35,1.61.03.12.05.24.07.35.15.7.28,1.4.41,2.09.14.74.27,1.48.39,2.22.22,1.34.42,2.66.58,3.96.27,2.02.47,3.98.63,5.86.05.63.1,1.24.14,1.85.04.58.08,1.17.13,1.76.18,2.22.92,4.35,2.1,6.24,0,0,.01.02.02.03,3.99,6.43,6.06,14.04,5.9,21.61v.03c-.07,3.63.88,12.72,9.25,17.9.78.48-.28,1.76-2.03,3.04Z"></path>
            </g>
            <g>
              <path class="cls-4" d="m423.71,250.35s-.14.26-.4.72c-1.5,2.65-6.95,12.24-12.63,21.4-2.94,4.72-5.94,9.34-8.48,12.82-5.86,8.01-76.74,6.79-89.23,1.35l6.55-7.61,2.84-1.27c3.42-.37,7.2-.75,11.15-1.14,20.52-2,45.52-4.29,48.05-7.74.04-.04.06-.08.08-.12.89-1.55,1.75-3.09,2.57-4.59h0c6.23-11.45,10.16-20.92,10.16-20.92l29.13,7.05.21.05Z"></path>
              <path class="cls-9" d="m423.71,250.35s-.14.26-.4.72c-1.5,2.65-6.95,12.24-12.63,21.4-2.94,4.72-5.94,9.34-8.48,12.82-5.86,8.01-76.74,6.79-89.23,1.35l6.55-7.61,2.84-1.27c3.42-.37,7.2-.75,11.15-1.14.59.14,1.16.29,1.72.45,23.42,6.72,58.94-3.23,58.94-3.23-9.04-2.18-9.96-9.67-9.96-9.67h0c6.23-11.45,10.16-20.92,10.16-20.92l29.13,7.05.21.05Z"></path>
            </g>
            <g>
              <g>
                <path class="cls-4" d="m447.61,504.22c-.61,2.46-12.87,6.33-15.53,3.53-.92-.98-2.87-4.03-5.05-7.71-4.14-6.98-9.06-16.23-9.29-18.01-.34-2.71,14.56-11.22,15.93-11.31.93-.07,6.98,13.55,10.79,22.36,1.83,4.21,3.15,7.34,3.15,7.34,0,0,.61,1.34,0,3.8Z"></path>
                <path class="cls-34" d="m461.14,512.37c-.57,2.79-12.15,12.19-24.45,17.22-12.21,5.58-25.13,6.8-26.32,5.86,0-.03-1.28-1.66-1.7-4.01-.45-2.42.03-5.64,3.8-8.64,1.38-1.12,4.09-3.48,5.19-4.64.01,0,3.87-8.36,6.42-11.45,3.13-3.76,5.54-2.64,5.54-2.63-.01-.07,3.49,4.59,10.86-.55,5.85-4.08,4.96-8.26,4.98-8.19,5.63.32,12.3,11.25,12.3,11.26,2.83,2.58,3.4,5.77,3.4,5.78Z"></path>
                <path class="cls-33" d="m461.14,512.37c-.57,2.79-12.15,12.19-24.45,17.22-12.21,5.58-25.13,6.8-26.32,5.86,0-.03-1.28-1.66-1.7-4.01,41.79-8.29,48.96-23.82,49.07-24.84,2.83,2.58,3.4,5.77,3.4,5.78Z"></path>
              </g>
              <path class="cls-11" d="m487.58,337.24c-12.12,19.87-39.45,44.86-67.16,43.85-12.49-.46-15.5-.8-15.5-.8,0,0,6.38,15.06,18.9,48.21,7.25,19.22,12.95,35.76,16.57,46.59,2.84,8.54,4.4,13.55,4.4,13.55,0,0-8.63,9.39-23.55,8.7,0,0-19.88-31.46-34.79-59.03-31.12-57.56-31.79-85.66-23.69-97.05,10.43-14.64,70.64-27.77,70.64-27.77h54.45c9.11,0,7.66,10.78-.26,23.75Z"></path>
              <path class="cls-16" d="m444.47,493.09c-2.83,2.3-8.83,6.24-17.43,6.95-.53-.9-1.07-1.83-1.62-2.79,8.9-.7,15.04-4.87,17.77-7.14.44,1.03.88,2.03,1.28,2.97Z"></path>
              <path class="cls-12" d="m420.42,381.09c-12.49-.46-15.5-.8-15.5-.8,0,0,6.38,15.06,18.9,48.21,7.25,19.22,12.95,35.76,16.57,46.59-9.5-13.5-19.93-28.9-26.86-40.86-15.73-27.1-39.49-66.06-32.13-82.46,7.36-16.4,61.83-38.27,61.83-38.27h37.99s3.11,12.06,6.36,23.73c-12.12,19.87-39.45,44.86-67.16,43.85Z"></path>
            </g>
            <g>
              <path class="cls-34" d="m432.8,231.34c-11.16,27.66-17.49,34.51-17.49,34.51-20.04.76-29.76-4.17-29.76-4.17,0,0,16.84-59.13,27.78-70.73,4.08-4.34,10.8-8.01,16.52-10.61,0-.01.01-.01.01-.01,5.78-2.62,10.55-4.15,10.55-4.15l2.81,2.45s.73,25.04-10.42,52.71Z"></path>
              <path class="cls-34" d="m503.24,290.4h-73.62c-2.25-23.09-8.47-27.21-11.37-45.29-.04-.26-.09-.54-.12-.8-2.6-17.75,3.14-33.77,3.14-33.77,0,0,11.71-30.12,31.8-31.46,1.51-.1,3.01-.07,4.49.09,18.21,1.9,33.83,22.36,38.57,43.41,1.47,6.54,2.68,14.9,3.66,23.51.41,3.58.78,7.21,1.11,10.76,1.65,17.67,2.36,33.55,2.36,33.55Z"></path>
              <path class="cls-34" d="m530.15,266.81s-.47-.02-1.28-.06c-1.68-.08-4.82-.25-8.3-.51-6.75-.51-16.2-1.27-17.34-2.43-.33-.34-1.2-2.77-2.22-5.47-.77-2.04-1.62-4.24-2.39-5.83-4.1-8.51-8.05-18.41-11.21-26.91-.25-.67-.48-1.31-.69-1.9-2.77-7.87-16.93-24.99-25.42-34.82-3.8-4.4-6.47-7.34-6.47-7.34l2.71-2.37,5.98-5.22s1.1.17,2.95.5c2.03.36,4.97.93,8.32,1.68,7.67,1.74,17.49,4.47,23.6,8.12,14.76,8.82,21.36,32.76,31.76,82.56Z"></path>
              <path class="cls-30" d="m503.24,290.4h-73.62c-2.26-23.22-11.57-31.29-13.63-44.77,2.36,3.28,9.42,11.91,19.26,10.59,12.49-1.67,13.11-.93,24.32-1.11,33.46-.56,27.16-31.4,27.16-31.4,0,0,6.47,19.29,14.14,33.04.02.03,0,.07,0,.11,1.65,17.67,2.36,33.55,2.36,33.55Z"></path>
              <path class="cls-1" d="m530.15,266.81s-.47-.02-1.28-.06c-4.14-11.68-20.74-71.24-39.72-80.33-4.88-2.34-13.9-4.58-16.61-6.48-3.07-2.14-5.2-3.77-6.6-5.01-9.73-8.58-5.65-20.39-5.49-20.84.21,2.54.48,5.07.78,7.44.4,3.15,1.67,6.06,3.59,8.43h0c1.92,2.38,4.49,4.22,7.48,5.29.84.29,1.68.59,2.48.88,7.67,1.74,17.49,4.47,23.6,8.12,14.76,8.82,21.36,32.76,31.76,82.56Z"></path>
            </g>
            <g>
              <path class="cls-4" d="m513.72,511.15c-.61,2.46-12.87,6.33-15.53,3.53-1-1.06-3.24-4.58-5.66-8.72-3.98-6.83-8.47-15.3-8.68-17-.34-2.71,14.56-11.22,15.93-11.31.93-.07,7.04,13.7,10.86,22.51,1.8,4.15,3.08,7.2,3.08,7.2,0,0,.61,1.34,0,3.8Z"></path>
              <path class="cls-16" d="m510.64,500.16c-4.1,2.46-10.52,5.4-18.11,5.8-3.98-6.83-8.47-15.3-8.68-17-.34-2.71,14.56-11.22,15.93-11.31.93-.07,7.04,13.7,10.86,22.51Z"></path>
              <path class="cls-34" d="m525.75,526.69c-2.35,4.68-53.13,16.13-55.56,14.53,0,0-1.71-2.53-.89-6.05.49-2.11,1.9-4.55,5.12-7.03,1.61-1.24,4.76-3.7,6.07-4.85,0,0,5.31-8.39,8.39-11.23,3.78-3.5,5.87-2.33,5.87-2.33,0,0,2.67,4.48,11.26,1.76,8.59-2.71,6.68-6.54,6.68-6.54,5.68,1.96,10.49,14.9,10.49,14.9,2.5,3.58,2.57,6.84,2.57,6.84Z"></path>
              <path class="cls-11" d="m488.07,435.18c13.67,32.69,25.93,58.8,25.93,58.8,0,0-11.31,9.9-26.23,9.2,0,0-33.72-44.92-49.45-72.02-11.24-19.38-26.6-44.83-31.74-63.74-2.05-7.55-2.48-14.05-.38-18.72,7.36-16.4,58.71-35.22,58.71-35.22h38.32s15.44,23.68,10.15,43.92c-4.89,18.66-21.07,26.36-36.91,25.8-7.86-.27-11.53-1.16-11.53-1.16,0,0,9.47,20.46,23.12,53.14Z"></path>
              <path class="cls-33" d="m525.75,526.69c-2.35,4.68-53.13,16.13-55.56,14.53,0,0-1.71-2.53-.89-6.05,3.52-.56,48.42-7.8,53.88-15.32,2.5,3.58,2.57,6.84,2.57,6.84Z"></path>
            </g>
            <g>
              <g>
                <path class="cls-4" d="m453.05,279.14s-.21.42-.55,1.07c-1.15,2.21-3.73,7.05-4.22,7.07-3.24.11-6.72.08-10.04-.15-6.79-.47-12.94-1.76-15.09-4.35,0,0-9.69-.07-12.05-.39-2.36-.31-5.36-.7-5.12-1.91.07-.38.95-.64,2.13-.83-2.06.04-3.97-.03-4.63-.4-1.65-.93-.28-3.24-.28-3.24,0,0-3.52-.3-2.61-1.78.91-1.48,25.81-7.86,27.89-7.4,1.57.34,14.95,7.27,21.27,10.58,2,1.05,3.3,1.73,3.3,1.73Z"></path>
                <path class="cls-4" d="m529.84,285.29c-2.1,7.81-75.75,6.86-91.6,1.84-.49-.16-.93-.33-1.31-.49l6.56-7.61,1.52-.68,1.32-.59c1.11-.12,2.25-.24,3.42-.35,21.49-2.11,52.8-3.35,54.38-7.66.07-.18.12-.39.14-.62.19-1.15.01-2.9-.4-4.96,2.32.89,9.56,1.52,15.41,1.97.43.03.86.07,1.29.1.47.03.93.07,1.38.1.68.05,1.33.09,1.96.13.21.01.42.02.62.04.4.02.79.05,1.17.07.39.02.76.04,1.11.06.63.03,1.19.06,1.67.09.09,0,.18,0,.26.01s.16.01.23.01c.08,0,.16.01.23.01.47,2.33.85,4.65,1.09,6.92.46,4.3.43,8.36-.45,11.61Z"></path>
              </g>
              <path class="cls-9" d="m529.84,285.29c-2.1,7.81-75.75,6.86-91.6,1.84-6.79-.47-12.94-1.76-15.09-4.35,0,0-9.69-.07-12.05-.39-2.36-.31-5.36-.7-5.12-1.91.07-.38.95-.64,2.13-.83-2.06.04-3.97-.03-4.63-.4,1.59-.53,8.99-5.98,22.77-4.75,5.61.5,11.78,2.08,18.76,3.85,2.4.61,4.89,1.24,7.49,1.86,8.42,2.01,17.95,3.9,28.92,4.45,24.2,1.22,43.52-4.27,34.98-10.37-8.54-6.11-10.57-7.73-12.53-10.12,2.32.89,9.56,1.52,15.41,1.97.43.03.86.07,1.29.1.47.03.93.07,1.38.1.68.05,1.33.09,1.96.13.21.01.42.02.62.04.4.02.79.05,1.17.07.39.02.76.04,1.11.06.63.03,1.19.06,1.67.09.09,0,.18,0,.26.01s.16.01.23.01c.08,0,.16.01.23.01.47,2.33.85,4.65,1.09,6.92.46,4.3.43,8.36-.45,11.61Z"></path>
            </g>
            <g>
              <path class="cls-4" d="m475.95,176.57c-1.15,1.17-2.28,2.3-3.41,3.37-1.12,1.07-2.23,2.08-3.35,3.04-2.61,2.26-5.21,4.24-7.89,5.9-2.73,1.71-5.54,3.1-8.48,4.13-4.04,1.42-8.34,2.16-13.1,2.16-2.66,0-4.91-1.86-6.58-4.39-2.12-3.19-3.31-7.47-3.28-10.45l5.78-2.53c.27-.12.53-.25.78-.4,1.87-1.14,3.08-3.14,3.18-5.36v-.12c.07-1.61.12-3.39.06-4.83-.01-.32-.12-.6-.3-.82-.23-.28-.56-.46-.93-.49-.19-.02-.39,0-.59.07-.78.28-1.79.58-2.98.81-.1.02-.2.04-.31.05-1.63.18-5.16-.09-6.71-.67-5.34-1.98-11.4-6.06-14.74-20.08-1.36-5.73-1.33-11.05-.76-15.79.06-.57.14-1.14.22-1.7,1.79-12.34,7.85-20.67,10.58-23.88.83-.98,1.35-1.48,1.35-1.48,0,0,11,20.66,28.76,21.32,1.84-2.52,4.23-3.67,6.97-3.19,4.24.73,5.61,4.82,5.18,10.29-.53,6.9-3.79,8.37-5.34,8.84-.22,3.86-.02,8.8.39,13.71h0c.21,2.55.48,5.08.78,7.45.4,3.15,1.67,6.06,3.59,8.43h0c1.92,2.38,4.49,4.22,7.48,5.29.84.29,1.68.59,2.48.88.4.15.78.3,1.16.44Z"></path>
              <path class="cls-9" d="m438.1,122.84c-10.63-4.59-13.61-19.73-13.61-19.73,0,0,11,20.66,28.76,21.32,0,0-8.52,1.27-15.15-1.59Z"></path>
              <g>
                <g>
                  <g>
                    <path class="cls-25" d="m426.92,126.06c3.25-2.3,8.92-1.91,10.94,1.86.23.49.01,1.07-.48,1.3-.34.16-.71.1-.99-.1-1.18-.91-2.58-1.28-4.07-1.44-1.51-.15-3.08-.06-4.68.15-.99.15-1.52-1.2-.72-1.78h0Z"></path>
                    <path class="cls-25" d="m418.78,129.07c-1.79.34-3.43.35-5.08.94-.6.29-1.33.25-1.59-.45-.08-.22-.07-.45,0-.65.89-2.05,3.36-2.69,5.36-2.4.64.1,1.27.31,1.83.71.79.52.4,1.81-.52,1.86h0Z"></path>
                  </g>
                  <ellipse class="cls-37" cx="431.43" cy="134.19" rx="1.88" ry="2" transform="translate(-7.38 241.84) rotate(-31.06)"></ellipse>
                  <ellipse class="cls-37" cx="417.92" cy="136.16" rx="1.88" ry="2" transform="translate(-10.33 235.15) rotate(-31.06)"></ellipse>
                  <path class="cls-27" d="m422.77,149.17s3.19,8.9,8.69,7.01,5.52-10.37,5.52-10.37l-14.21,3.36Z"></path>
                  <path class="cls-37" d="m415.44,135.19c.5-1.07,1.96-1.55,3.01-1.04.3.14.19.62-.13.63-.9.04-1.65.34-2.39.83-.26.18-.62-.12-.49-.41h0Z"></path>
                  <path class="cls-37" d="m429.06,133.34c.5-1.07,1.96-1.55,3.01-1.04.3.14.19.62-.13.63-.9.04-1.65.34-2.39.83-.26.18-.62-.12-.49-.41h0Z"></path>
                </g>
                <path class="cls-18" d="m421.78,132.77c.76,4.12.08,8.51-.35,12.55-.06,1.47,1.15,1.28,2.34,1.09.58-.1.77.79.21.94-4.94,1.62-3.96-3.14-3.54-6.25.31-2.71.35-5.53.38-8.26,0-.58.87-.65.96-.07h0Z"></path>
              </g>
            </g>
          </g>
          <g>
            <g>
              <g>
                <path class="cls-32" d="m428.27,289.74v.66h-95.93v-7.53h89.06c3.79,0,6.87,3.07,6.87,6.87Z"></path>
                <g>
                  <path class="cls-31" d="m368.73,288.44c.08,1.06-.76,1.96-1.82,1.96h-122.5c-.95,0-1.75-.74-1.82-1.69l-6.89-94.47-.04-.6c-.07-1.05.76-1.96,1.83-1.96h122.49c.96,0,1.75.74,1.82,1.7l5.48,75.2,1.04,14.29.41,5.57Z"></path>
                  <path class="cls-32" d="m362.76,288.44c.08,1.06-.76,1.96-1.82,1.96h-122.5c-.95,0-1.75-.74-1.82-1.69l-6.93-95.07c-.07-1.05.76-1.96,1.83-1.96h122.49c.96,0,1.75.74,1.82,1.7l5.57,76.47.95,13.02.41,5.57Z"></path>
                </g>
              </g>
              <ellipse class="cls-1" cx="294.68" cy="240.91" rx="7.9" ry="8.65" transform="translate(-83.08 287.55) rotate(-46.31)"></ellipse>
            </g>
            <path class="cls-20" d="m428.27,289.74v.66h-189.83c-.95,0-1.75-.74-1.82-1.69l-6.93-95.07c-.07-1.05.76-1.96,1.83-1.96h1.69c.84.85,1.67,1.7,2.49,2.56,15.05,15.55,28.78,32.44,45,46.76,20.3,17.95,46.22,32.08,73.23,29.86,2.52-.21,5-.55,7.47-1.01,1.97-.35,3.93-.78,5.88-1.27l1.04,14.29h53.08c3.79,0,6.87,3.07,6.87,6.87Z"></path>
          </g>
          <g>
            <g>
              <path class="cls-7" d="m68.75,313.5l-.28,23.22-2.62,215.03c-.02,1.29-.93,2.34-2.04,2.34h-8.16c-1.1,0-2-1.03-2.03-2.3l-5.24-215.06-.57-23.22h20.94Z"></path>
              <path class="cls-19" d="m206.03,313.5l-.28,23.22-2.62,215.03c-.01,1.29-.93,2.34-2.04,2.34h-8.15c-1.1,0-2.01-1.03-2.04-2.3l-5.24-215.06-.57-23.22h20.94Z"></path>
              <path class="cls-19" d="m562.74,313.5l-.28,23.22-2.62,215.03c-.01,1.29-.93,2.34-2.04,2.34h-8.15c-1.1,0-2.01-1.03-2.04-2.3l-5.24-215.06-.57-23.22h20.94Z"></path>
              <path class="cls-7" d="m411.57,313.5l-.28,23.22-2.62,215.03c-.01,1.29-.92,2.34-2.03,2.34h-8.16c-1.1,0-2.01-1.03-2.03-2.3l-5.25-215.06-.57-23.22h20.94Z"></path>
            </g>
            <polygon class="cls-21" points="68.75 313.5 68.47 336.72 48.38 336.72 47.81 313.5 68.75 313.5"></polygon>
            <polygon class="cls-21" points="206.03 313.5 205.75 336.72 185.66 336.72 185.08 313.5 206.03 313.5"></polygon>
            <polygon class="cls-21" points="562.74 313.5 562.47 336.72 542.37 336.72 541.8 313.5 562.74 313.5"></polygon>
            <g>
              <path class="cls-19" d="m587.91,294.61v14.57c0,2.39-1.93,4.32-4.32,4.32h-231.94c-2.38,0-4.32-1.93-4.32-4.32v-14.57c0-2.39,1.94-4.32,4.32-4.32h231.94c2.39,0,4.32,1.93,4.32,4.32Z"></path>
              <rect class="cls-7" x="18.94" y="290.29" width="403.76" height="23.21" rx="4.32" ry="4.32"></rect>
            </g>
            <polygon class="cls-21" points="411.57 313.5 411.29 336.72 391.2 336.72 390.63 313.5 411.57 313.5"></polygon>
          </g>
        </g>
      </g>
    </g>
  </g>
</svg>
