<svg width="30" height="30" viewBox="0 0 30 30" fill="none" xmlns="http://www.w3.org/2000/svg">
<path d="M20.5031 7.35L18.8719 6.4125L15 13.125C14.6292 13.125 14.2667 13.235 13.9583 13.441C13.65 13.647 13.4096 13.9399 13.2677 14.2825C13.1258 14.6251 13.0887 15.0021 13.161 15.3658C13.2334 15.7295 13.412 16.0636 13.6742 16.3258C13.9364 16.588 14.2705 16.7666 14.6342 16.839C14.9979 16.9113 15.3749 16.8742 15.7175 16.7323C16.0601 16.5904 16.353 16.35 16.559 16.0417C16.765 15.7334 16.875 15.3708 16.875 15C16.8744 14.6707 16.7871 14.3473 16.6219 14.0625L20.5031 7.35Z" fill="#201F22"/>
<path d="M15 1.875C12.4041 1.875 9.86654 2.64477 7.70815 4.08696C5.54975 5.52915 3.86749 7.579 2.87409 9.97728C1.88069 12.3756 1.62077 15.0146 2.1272 17.5606C2.63363 20.1066 3.88366 22.4452 5.71923 24.2808C7.55479 26.1163 9.89345 27.3664 12.4394 27.8728C14.9854 28.3792 17.6244 28.1193 20.0227 27.1259C22.421 26.1325 24.4708 24.4503 25.913 22.2919C27.3552 20.1335 28.125 17.5959 28.125 15C28.125 11.519 26.7422 8.18064 24.2808 5.71922C21.8194 3.25781 18.481 1.875 15 1.875ZM15 3.75C17.2645 3.75261 19.4756 4.43856 21.3439 5.71814C23.2123 6.99772 24.651 8.81137 25.4719 10.9219C24.3569 10.3643 23.2003 9.89414 22.0125 9.51562L21.075 11.175C22.8561 11.6975 24.5612 12.4508 26.1469 13.4156C26.3094 14.4656 26.3094 15.5344 26.1469 16.5844C22.7849 18.6185 18.9295 19.6918 15 19.6875C11.0769 19.6884 7.22843 18.6152 3.87188 16.5844C3.70938 15.5344 3.70938 14.4656 3.87188 13.4156C6.95244 11.5378 10.4582 10.4703 14.0625 10.3125V8.4375C10.7477 8.5661 7.49794 9.39692 4.52813 10.875C5.35646 8.77326 6.79835 6.96958 8.6661 5.69878C10.5339 4.42797 12.7409 3.74891 15 3.75ZM15 26.25C12.7355 26.2474 10.5244 25.5614 8.65609 24.2819C6.78773 23.0023 5.34902 21.1886 4.52813 19.0781C7.77736 20.7113 11.3634 21.562 15 21.5625C18.6366 21.562 22.2226 20.7113 25.4719 19.0781C24.651 21.1886 23.2123 23.0023 21.3439 24.2819C19.4756 25.5614 17.2645 26.2474 15 26.25Z" fill="#201F22"/>
</svg>
