<svg width="41" height="41" viewBox="0 0 41 41" fill="none" xmlns="http://www.w3.org/2000/svg">
<circle cx="20.6789" cy="20.6396" r="20" fill="#393E41"/>
<path fill-rule="evenodd" clip-rule="evenodd" d="M20.6789 10.6396C17.9662 10.6396 17.6245 10.6536 16.5576 10.7024C15.4906 10.7512 14.7654 10.9186 14.1308 11.1696C13.4613 11.4207 12.8616 11.8112 12.3595 12.3203C11.8504 12.8224 11.4599 13.4221 11.2089 14.0915C10.9648 14.7261 10.7905 15.4514 10.7417 16.5183C10.6928 17.5853 10.6789 17.92 10.6789 20.6396C10.6789 23.3593 10.6928 23.694 10.7417 24.761C10.7905 25.821 10.9578 26.5532 11.2089 27.1878C11.4599 27.8572 11.8504 28.4569 12.3595 28.959C12.8616 29.4681 13.4613 29.8586 14.1308 30.1097C14.7654 30.3537 15.4906 30.5281 16.5576 30.5769C17.6245 30.6257 17.9592 30.6396 20.6789 30.6396C23.3986 30.6396 23.7333 30.6257 24.8002 30.5769C25.8602 30.5281 26.5924 30.3607 27.227 30.1097C27.8965 29.8586 28.4962 29.4681 28.9983 28.959C29.5073 28.4569 29.8979 27.8572 30.1489 27.1878C30.393 26.5532 30.5673 25.8279 30.6161 24.761C30.6649 23.694 30.6789 23.3593 30.6789 20.6396C30.6789 17.92 30.6649 17.5853 30.6161 16.5183C30.5673 15.4583 30.4 14.7261 30.1489 14.0915C29.8979 13.4221 29.5073 12.8224 28.9983 12.3203C28.4962 11.8112 27.8965 11.4207 27.227 11.1696C26.5924 10.9256 25.8672 10.7512 24.8002 10.7024C23.7333 10.6536 23.3986 10.6396 20.6789 10.6396ZM27.3107 15.4025C27.3107 15.6396 27.241 15.8767 27.1085 16.079C26.976 16.2812 26.7877 16.4346 26.5645 16.5253C26.3414 16.6159 26.0973 16.6438 25.8602 16.595C25.6231 16.5462 25.4069 16.4346 25.2396 16.2603C25.1001 16.1208 24.9955 15.9465 24.9397 15.7512C24.8839 15.5629 24.87 15.3607 24.9118 15.1585C24.9537 14.9632 25.0373 14.7819 25.1629 14.6285C25.2884 14.4751 25.4557 14.3565 25.6371 14.2798C25.8184 14.2031 26.0206 14.1752 26.2228 14.1961C26.4181 14.2171 26.6133 14.2868 26.7807 14.3984C26.9481 14.5099 27.0806 14.6564 27.1782 14.8377C27.2758 15.012 27.3246 15.2073 27.3246 15.4095L27.3107 15.4025ZM20.6788 15.4932C19.319 15.4932 18.0079 16.0371 17.0456 16.9994C16.0833 17.9618 15.5393 19.2658 15.5393 20.6326C15.5393 21.9994 16.0833 23.3035 17.0456 24.2658C18.0079 25.2282 19.312 25.7721 20.6788 25.7721C22.0456 25.7721 23.3496 25.2282 24.312 24.2658C25.2743 23.3035 25.8183 21.9994 25.8183 20.6326C25.8183 19.2658 25.2743 17.9618 24.312 16.9994C23.3496 16.0371 22.0456 15.4932 20.6788 15.4932ZM18.3212 22.9892C18.9488 23.6168 19.7926 23.9655 20.6782 23.9655V23.9725C21.3407 23.9725 21.9823 23.7772 22.5332 23.4076C23.0841 23.038 23.5095 22.515 23.7605 21.9083C24.0116 21.3016 24.0743 20.6322 23.9488 19.9836C23.8163 19.3351 23.5025 18.7423 23.0353 18.2751C22.7285 17.9613 22.3589 17.7172 21.9544 17.5499C21.5499 17.3825 21.1176 17.2988 20.6782 17.2988C20.2389 17.2988 19.8066 17.3825 19.4021 17.5499C18.9976 17.7172 18.628 17.9683 18.3212 18.2751C18.0074 18.582 17.7633 18.9515 17.596 19.356C17.4286 19.7605 17.3449 20.1928 17.3449 20.6322C17.3449 21.0715 17.4286 21.5038 17.596 21.9083C17.7633 22.3128 18.0144 22.6824 18.3212 22.9892Z" fill="white"/>
</svg>
