<svg width="41" height="41" viewBox="0 0 41 41" fill="none" xmlns="http://www.w3.org/2000/svg">
<circle cx="20.6789" cy="20.6396" r="20" fill="#393E41"/>
<path fill-rule="evenodd" clip-rule="evenodd" d="M20.6789 10.6396C17.9662 10.6396 17.6245 10.6536 16.5576 10.7024C15.4906 10.7512 14.7654 10.9186 14.1308 11.1696C13.4613 11.4207 12.8616 11.8112 12.3595 12.3203C11.8504 12.8224 11.4599 13.4221 11.2089 14.0915C10.9648 14.7261 10.7905 15.4514 10.7417 16.5183C10.6928 17.5853 10.6789 17.92 10.6789 20.6396C10.6789 23.3593 10.6928 23.694 10.7417 24.761C10.7905 25.821 10.9578 26.5532 11.2089 27.1878C11.4599 27.8572 11.8504 28.4569 12.3595 28.959C12.8616 29.4681 13.4613 29.8586 14.1308 30.1097C14.7654 30.3537 15.4906 30.5281 16.5576 30.5769C17.6245 30.6257 17.9592 30.6396 20.6789 30.6396C23.3986 30.6396 23.7333 30.6257 24.8002 30.5769C25.8602 30.5281 26.5924 30.3607 27.227 30.1097C27.8965 29.8586 28.4962 29.4681 28.9983 28.959C29.5073 28.4569 29.8979 27.8572 30.1489 27.1878C30.393 26.5532 30.5673 25.8279 30.6161 24.761C30.6649 23.694 30.6789 23.3593 30.6789 20.6396C30.6789 17.92 30.6649 17.5853 30.6161 16.5183C30.5673 15.4583 30.4 14.7261 30.1489 14.0915C29.8979 13.4221 29.5073 12.8224 28.9983 12.3203C28.4962 11.8112 27.8965 11.4207 27.227 11.1696C26.5924 10.9256 25.8672 10.7512 24.8002 10.7024C23.7333 10.6536 23.3986 10.6396 20.6789 10.6396ZM17.2664 18.4554V26.8896H14.5868V18.4554H17.2664ZM17.443 15.847C17.443 16.6564 16.8614 17.3041 15.9271 17.3041L15.9096 17.304C15.0102 17.304 14.4288 16.6563 14.4288 15.847C14.4288 15.0192 15.0278 14.3896 15.9449 14.3896C16.8614 14.3896 17.4255 15.0192 17.443 15.847ZM21.4289 26.8896H18.7496C18.7496 26.8896 18.7847 19.2469 18.7497 18.4557H21.4292V19.6495C21.7853 19.075 22.4228 18.2577 23.8441 18.2577C25.6071 18.2577 26.9288 19.4632 26.9288 22.0537V26.8896H24.2495V22.3781C24.2495 21.2441 23.8615 20.4707 22.8921 20.4707C22.1517 20.4707 21.7108 20.9923 21.5172 21.4962C21.4464 21.676 21.4289 21.9284 21.4289 22.1801V26.8896Z" fill="white"/>
</svg>
