<svg width="41" height="41" viewBox="0 0 41 41" fill="none" xmlns="http://www.w3.org/2000/svg">
<circle cx="20.6789" cy="20.6396" r="20" fill="#393E41"/>
<path d="M30.5899 14.2871C29.943 14.5656 29.2628 14.7594 28.5663 14.864C28.892 14.8082 29.3711 14.222 29.5619 13.9848C29.8516 13.6269 30.0724 13.2183 30.2131 12.7799C30.2131 12.7473 30.2457 12.7008 30.2131 12.6775C30.1967 12.6686 30.1783 12.6639 30.1596 12.6639C30.1409 12.6639 30.1225 12.6686 30.1061 12.6775C29.3498 13.0871 28.5449 13.3997 27.7104 13.6079C27.6813 13.6168 27.6503 13.6176 27.6208 13.6102C27.5913 13.6029 27.5644 13.5876 27.5429 13.5661C27.4779 13.4887 27.408 13.4157 27.3336 13.3474C26.9932 13.0425 26.607 12.7929 26.1892 12.6078C25.6251 12.3764 25.0159 12.2761 24.4075 12.3147C23.8171 12.352 23.2407 12.5103 22.7141 12.7799C22.1956 13.0641 21.7399 13.4502 21.3744 13.915C20.9899 14.3934 20.7123 14.9485 20.5603 15.5432C20.4349 16.1088 20.4207 16.6934 20.5184 17.2644C20.5184 17.3621 20.5184 17.3761 20.4347 17.3621C17.1178 16.8736 14.3964 15.6967 12.1727 13.1707C12.075 13.059 12.0239 13.059 11.9448 13.1707C10.9772 14.6407 11.447 16.9667 12.6565 18.1157C12.8194 18.2692 12.9868 18.4181 13.1636 18.5577C12.609 18.5183 12.068 18.368 11.5726 18.1157C11.4796 18.0552 11.4284 18.0878 11.4238 18.1995C11.4106 18.3542 11.4106 18.5099 11.4238 18.6647C11.5208 19.4065 11.8132 20.1092 12.2709 20.7009C12.7286 21.2927 13.3353 21.7523 14.0289 22.0327C14.198 22.1051 14.3741 22.1597 14.5545 22.1955C14.0412 22.2966 13.5146 22.3123 12.9961 22.242C12.8845 22.2188 12.8426 22.2792 12.8845 22.3862C13.5683 24.247 15.0523 24.8146 16.1409 25.1309C16.2897 25.1542 16.4386 25.1542 16.6061 25.1914C16.6061 25.1914 16.6061 25.1914 16.5782 25.2193C16.2572 25.8055 14.9593 26.2009 14.3638 26.4056C13.277 26.796 12.1182 26.9452 10.9679 26.8428C10.7864 26.8149 10.7446 26.8196 10.698 26.8428C10.6515 26.8661 10.698 26.9173 10.7492 26.9638C10.9818 27.1173 11.2144 27.2522 11.4563 27.3825C12.1765 27.7753 12.9378 28.0873 13.7265 28.3129C17.8109 29.4387 22.4071 28.6106 25.4728 25.5635C27.8825 23.1724 28.7291 19.8742 28.7291 16.5713C28.7291 16.4457 28.8827 16.3712 28.9711 16.3061C29.5807 15.8311 30.1182 15.2701 30.5667 14.6407C30.6444 14.5469 30.6842 14.4274 30.6783 14.3057C30.6783 14.236 30.6783 14.2499 30.5899 14.2871Z" fill="white"/>
</svg>
