<svg width="28" height="28" viewBox="0 0 28 28" fill="none" xmlns="http://www.w3.org/2000/svg">
<path d="M5.24999 26.25H6.99999V23.625H10.5C11.6599 23.6237 12.772 23.1624 13.5922 22.3422C14.4124 21.522 14.8737 20.4099 14.875 19.25V18.1306L16.9017 17.4551C17.026 17.4137 17.1393 17.3448 17.2335 17.2537C17.3276 17.1626 17.4001 17.0515 17.4455 16.9286C17.491 16.8057 17.5083 16.6742 17.4961 16.5438C17.4839 16.4133 17.4426 16.2873 17.3752 16.1749L14.875 12.0075V9.625C14.8727 7.53713 14.0422 5.53544 12.5659 4.05909C11.0895 2.58274 9.08786 1.75232 6.99999 1.75H2.62499V3.5H6.99999C8.62388 3.50181 10.1808 4.1477 11.329 5.29597C12.4773 6.44423 13.1232 8.0011 13.125 9.625V12.25C13.125 12.4086 13.1681 12.5642 13.2498 12.7001L15.3135 16.1399L13.7233 16.6699C13.5491 16.728 13.3975 16.8394 13.2902 16.9884C13.1828 17.1374 13.125 17.3163 13.125 17.5V19.25C13.1242 19.946 12.8474 20.6132 12.3553 21.1053C11.8632 21.5974 11.1959 21.8742 10.5 21.875H6.12499C5.89292 21.875 5.67036 21.9672 5.50627 22.1313C5.34217 22.2954 5.24999 22.5179 5.24999 22.75V26.25Z" fill="#EB5A00"/>
<path d="M7.87499 10.5H11.375V12.25H7.87499V10.5Z" fill="#EB5A00"/>
<path d="M19.8341 22.0647C20.4762 21.4901 20.9898 20.7866 21.3415 20C21.6932 19.2134 21.875 18.3614 21.875 17.4998C21.875 16.6381 21.6932 15.7862 21.3415 14.9996C20.9898 14.213 20.4762 13.5094 19.8341 12.9349L18.6668 14.2386C19.1256 14.649 19.4927 15.1516 19.744 15.7135C19.9953 16.2754 20.1252 16.884 20.1252 17.4996C20.1252 18.1152 19.9953 18.7238 19.744 19.2857C19.4927 19.8477 19.1256 20.3502 18.6668 20.7606L19.8341 22.0647Z" fill="#EB5A00"/>
<path d="M22.4005 25.2007C23.5957 24.304 24.5657 23.1413 25.2338 21.8048C25.9019 20.4683 26.2498 18.9946 26.2498 17.5004C26.2498 16.0062 25.9019 14.5326 25.2338 13.1961C24.5657 11.8596 23.5957 10.6969 22.4005 9.80017L21.35 11.2C22.3281 11.9336 23.122 12.8849 23.6688 13.9785C24.2156 15.0721 24.5003 16.2779 24.5003 17.5006C24.5003 18.7233 24.2156 19.9292 23.6688 21.0228C23.122 22.1164 22.3281 23.0676 21.35 23.8012L22.4005 25.2007Z" fill="#EB5A00"/>
</svg>
