<?xml version="1.0" encoding="UTF-8"?>
<svg xmlns="http://www.w3.org/2000/svg" width="864" height="830" viewBox="0 0 864 830" fill="none">
  <rect width="864" height="830" fill="#100F13"></rect>
  <circle cx="432" cy="415" r="184.233" stroke="#7186F9" stroke-width="2"></circle>
  <path d="M864 415L661.33 415" stroke="#7186F9" stroke-width="2"></path>
  <path d="M719.8 356.53L661.33 415L719.8 473.47" stroke="#7186F9" stroke-width="2"></path>
  <path d="M410.633 398.5V431.5H404.99V405.604H404.915L394.833 431.5H391.071L380.764 405.604H380.688V431.5H375.497V398.5H383.623L392.952 422.945H393.103L402.959 398.5H410.633ZM415.297 401.021C415.297 400.104 415.598 399.34 416.276 398.729C416.953 398.118 417.705 397.813 418.608 397.813C419.586 397.813 420.414 398.118 421.015 398.729C421.617 399.34 421.994 400.104 421.994 401.021C421.994 401.938 421.693 402.702 421.015 403.313C420.338 403.924 419.586 404.229 418.608 404.229C417.63 404.229 416.877 403.924 416.276 403.313C415.674 402.625 415.297 401.861 415.297 401.021ZM421.392 407.82V431.5H415.899V407.82H421.392ZM438.019 427.452C438.847 427.452 439.749 427.299 440.728 426.84C441.706 426.459 442.608 425.924 443.436 425.313V430.507C442.533 431.042 441.555 431.424 440.427 431.653C439.298 431.882 438.094 432.035 436.74 432.035C433.279 432.035 430.495 430.965 428.389 428.75C426.207 426.535 425.153 423.709 425.153 420.347C425.153 416.528 426.282 413.396 428.464 410.952C430.646 408.507 433.73 407.285 437.793 407.285C438.847 407.285 439.9 407.438 440.878 407.667C441.931 407.896 442.759 408.278 443.361 408.583V413.931C442.533 413.32 441.63 412.785 440.803 412.479C439.9 412.174 438.997 411.945 438.094 411.945C435.912 411.945 434.182 412.632 432.828 414.083C431.473 415.535 430.871 417.445 430.871 419.889C430.871 422.257 431.549 424.167 432.828 425.465C434.107 426.764 435.837 427.452 438.019 427.452ZM459.01 407.438C459.462 407.438 459.838 407.438 460.214 407.514C460.59 407.59 460.891 407.667 461.117 407.743V413.396C460.816 413.167 460.44 412.938 459.838 412.785C459.236 412.632 458.634 412.479 457.806 412.479C456.452 412.479 455.323 413.09 454.421 414.236C453.518 415.382 452.991 417.139 452.991 419.584V431.5H447.499V407.82H452.991V411.563H453.066C453.593 410.264 454.345 409.271 455.323 408.507C456.377 407.82 457.581 407.438 459.01 407.438ZM461.418 420.042C461.418 416.146 462.546 413.014 464.653 410.722C466.835 408.431 469.844 407.285 473.681 407.285C477.293 407.285 480.152 408.354 482.183 410.57C484.214 412.785 485.268 415.764 485.268 419.507C485.268 423.327 484.139 426.382 482.033 428.674C479.851 430.965 476.917 432.111 473.155 432.111C469.543 432.111 466.684 431.042 464.578 428.903C462.471 426.688 461.418 423.709 461.418 420.042ZM467.136 419.813C467.136 422.257 467.662 424.167 468.791 425.465C469.919 426.764 471.499 427.452 473.531 427.452C475.487 427.452 477.067 426.84 478.12 425.465C479.174 424.167 479.7 422.257 479.7 419.66C479.7 417.139 479.174 415.229 478.12 413.854C477.067 412.556 475.487 411.868 473.606 411.868C471.575 411.868 470.07 412.556 468.941 413.931C467.662 415.382 467.136 417.292 467.136 419.813ZM493.469 414.083C493.469 414.847 493.694 415.535 494.221 415.993C494.748 416.452 495.801 416.986 497.531 417.674C499.713 418.59 501.293 419.584 502.121 420.653C503.024 421.799 503.475 423.097 503.475 424.702C503.475 426.917 502.648 428.674 500.917 430.049C499.262 431.424 496.93 432.035 494.071 432.035C493.092 432.035 492.039 431.882 490.835 431.653C489.632 431.424 488.653 431.118 487.826 430.736V425.236C488.804 425.924 489.932 426.535 491.061 426.917C492.19 427.299 493.243 427.528 494.221 427.528C495.425 427.528 496.403 427.375 496.93 426.993C497.531 426.611 497.832 426.077 497.832 425.236C497.832 424.472 497.531 423.861 496.93 423.25C496.328 422.715 495.124 422.104 493.469 421.417C491.437 420.577 490.008 419.584 489.18 418.514C488.353 417.445 487.901 416.07 487.901 414.389C487.901 412.25 488.729 410.493 490.384 409.118C492.039 407.743 494.221 407.056 496.854 407.056C497.682 407.056 498.585 407.132 499.563 407.361C500.541 407.59 501.444 407.82 502.121 408.049V413.472C501.369 413.014 500.541 412.556 499.563 412.174C498.585 411.792 497.607 411.639 496.704 411.639C495.651 411.639 494.823 411.868 494.296 412.25C493.77 412.785 493.469 413.32 493.469 414.083ZM505.807 420.042C505.807 416.146 506.936 413.014 509.043 410.722C511.225 408.431 514.234 407.285 518.071 407.285C521.683 407.285 524.542 408.354 526.573 410.57C528.604 412.785 529.658 415.764 529.658 419.507C529.658 423.327 528.529 426.382 526.422 428.674C524.241 430.965 521.306 432.111 517.544 432.111C513.933 432.111 511.074 431.042 508.967 428.903C506.936 426.688 505.807 423.709 505.807 420.042ZM511.525 419.813C511.525 422.257 512.052 424.167 513.181 425.465C514.309 426.764 515.889 427.452 517.921 427.452C519.877 427.452 521.457 426.84 522.51 425.465C523.563 424.167 524.09 422.257 524.09 419.66C524.09 417.139 523.563 415.229 522.51 413.854C521.457 412.556 519.877 411.868 517.996 411.868C515.964 411.868 514.46 412.556 513.331 413.931C512.127 415.382 511.525 417.292 511.525 419.813ZM547.94 412.403H539.739V431.5H534.172V412.403H530.26V407.82H534.172V404.535C534.172 402.09 534.999 400.028 536.579 398.424C538.159 396.82 540.191 396.056 542.674 396.056C543.351 396.056 543.953 396.132 544.479 396.132C545.006 396.132 545.457 396.285 545.834 396.438V401.25C545.683 401.174 545.307 401.021 544.855 400.868C544.404 400.715 543.877 400.639 543.276 400.639C542.147 400.639 541.244 401.021 540.642 401.708C540.04 402.396 539.739 403.542 539.739 404.917V407.743H547.94V402.396L553.432 400.715V407.743H559V412.327H553.432V423.403C553.432 424.854 553.733 425.847 554.185 426.459C554.712 427.07 555.539 427.375 556.668 427.375C556.969 427.375 557.345 427.299 557.796 427.146C558.248 426.993 558.624 426.84 558.925 426.611V431.195C558.549 431.424 558.022 431.577 557.194 431.729C556.367 431.882 555.614 431.959 554.787 431.959C552.454 431.959 550.724 431.347 549.595 430.125C548.467 428.903 547.865 426.993 547.865 424.472L547.94 412.403Z" fill="white"></path>
  <path d="M330.731 387.5H305V413.625H330.731V387.5Z" fill="white"></path>
  <path d="M359.17 387.5H333.439V413.625H359.17V387.5Z" fill="white"></path>
  <path d="M330.731 416.375H305V442.5H330.731V416.375Z" fill="white"></path>
  <path d="M359.17 416.375H333.439V442.5H359.17V416.375Z" fill="white"></path>
</svg>
